<?xml version="1.0" encoding="utf-8"?>
<!-- Generator: Adobe Illustrator 15.0.0, SVG Export Plug-In . SVG Version: 6.00 Build 0)  -->
<!DOCTYPE svg PUBLIC "-//W3C//DTD SVG 1.1//EN" "http://www.w3.org/Graphics/SVG/1.1/DTD/svg11.dtd">
<svg version="1.1" id="Camada_1" xmlns="http://www.w3.org/2000/svg" xmlns:xlink="http://www.w3.org/1999/xlink" x="0px" y="0px"
	 width="116px" height="116px" viewBox="0 0 116 116" enable-background="new 0 0 116 116" xml:space="preserve">
<title>Ciencias Agrarias</title>
<desc>Created with Sketch.</desc>
<g>
	<path fill="#FFFFFF" d="M71.463,69.926c0,0,0,0,0.002,0c4.757,0,9.349-1.066,13.652-3.169
		c15.421-7.541,21.834-26.224,14.294-41.646C94.145,14.338,83.419,7.646,71.421,7.646c-4.758,0-9.352,1.067-13.654,3.17
		c-7.471,3.652-13.073,9.997-15.772,17.862c-2.7,7.866-2.176,16.312,1.478,23.783C48.739,63.233,59.464,69.926,71.463,69.926z"/>
	<path fill="#FFFFFF" d="M30.907,79.538c-0.48,0.705-0.973,1.404-1.48,2.094c9.165,9.383,21.185,15.324,33.938,17.09
		c1.254-0.681,2.48-1.395,3.679-2.14C53.46,95.524,40.505,89.531,30.907,79.538z"/>
	<path fill="#FFFFFF" d="M14.833,96.313c4.242,4.307,8.93,8.074,13.953,11.26c0.625,0.001,1.25-0.006,1.877-0.021
		c-5.427-3.292-10.479-7.26-15.017-11.852C15.378,95.907,15.106,96.109,14.833,96.313z"/>
	<path fill="#FFFFFF" d="M34.892,72.928c-0.497,0.943-1.018,1.873-1.561,2.793C43.57,86.843,58.223,92.86,73.143,92.346
		c1.388-1.073,2.729-2.188,4.018-3.346C61.399,90.903,45.478,84.916,34.892,72.928z"/>
	<path fill="#FFFFFF" d="M25.04,87.003c7.787,7.782,17.354,13.386,27.694,16.453c1.069-0.38,2.135-0.783,3.197-1.215
		c-11.065-2.78-21.338-8.511-29.556-16.758C25.938,85.996,25.492,86.5,25.04,87.003z"/>
	<path fill="#FFFFFF" d="M20.171,91.896c6.15,6.145,13.303,11.056,21.056,14.595c0.867-0.153,1.733-0.323,2.599-0.509
		c-8.333-3.507-16.015-8.605-22.545-15.12C20.915,91.211,20.545,91.555,20.171,91.896z"/>
	<path fill="#FFFFFF" d="M38.312,65.387c-0.483,1.264-1,2.514-1.557,3.75c10.879,13.263,28.612,19.17,45.307,15.021
		c1.495-1.625,2.9-3.309,4.22-5.047C68.929,85.91,49.246,80.068,38.312,65.387z"/>
	<path fill="#FFFFFF" d="M9.471,99.968c-0.146,0.09-0.293,0.18-0.441,0.271c2.024,2.117,4.143,4.122,6.351,6.003
		c0.34,0.068,0.68,0.134,1.022,0.195C13.985,104.422,11.67,102.265,9.471,99.968z"/>
	<path fill="#FFFFFF" d="M41.136,55.917c-0.405,1.862-0.895,3.709-1.464,5.538c10.259,15.731,30.924,21.743,48.22,13.286
		c0.75-0.366,1.477-0.762,2.19-1.171c1.624-2.634,3.057-5.359,4.297-8.154c-2.394,2.249-5.159,4.182-8.261,5.699
		C69.504,79.237,49.403,72.415,41.136,55.917z"/>
</g>
</svg>
