<?xml version="1.0" encoding="utf-8"?>
<!-- Generator: Adobe Illustrator 15.0.0, SVG Export Plug-In . SVG Version: 6.00 Build 0)  -->
<!DOCTYPE svg PUBLIC "-//W3C//DTD SVG 1.1//EN" "http://www.w3.org/Graphics/SVG/1.1/DTD/svg11.dtd">
<svg version="1.1" id="Camada_1" xmlns="http://www.w3.org/2000/svg" xmlns:xlink="http://www.w3.org/1999/xlink" x="0px" y="0px"
	 width="116px" height="116px" viewBox="0 0 116 116" enable-background="new 0 0 116 116" xml:space="preserve">
<title>Ciencias Agrarias</title>
<desc>Created with Sketch.</desc>
<path fill="#FFFFFF" d="M80.527,4.142H35.473c-3.751,0-6.792,3.041-6.792,6.792v94.13c0,3.752,3.041,6.794,6.792,6.794h45.055
	c3.751,0,6.792-3.042,6.792-6.794v-94.13C87.319,7.183,84.278,4.142,80.527,4.142z M48.218,11.419h19.564
	c0.225,0,0.407,0.239,0.407,0.534c0,0.296-0.183,0.536-0.407,0.536H48.218c-0.225,0-0.407-0.24-0.407-0.536
	C47.811,11.658,47.993,11.419,48.218,11.419z M58,105.277c-2.814,0-5.095-2.281-5.095-5.095s2.281-5.095,5.095-5.095
	c2.813,0,5.095,2.281,5.095,5.095S60.813,105.277,58,105.277z M83.474,86.553H32.526V20.256h50.948V86.553z"/>
</svg>
