<?xml version="1.0" encoding="utf-8"?>
<!-- Generator: Adobe Illustrator 15.0.0, SVG Export Plug-In . SVG Version: 6.00 Build 0)  -->
<!DOCTYPE svg PUBLIC "-//W3C//DTD SVG 1.1//EN" "http://www.w3.org/Graphics/SVG/1.1/DTD/svg11.dtd">
<svg version="1.1" id="Camada_1" xmlns="http://www.w3.org/2000/svg" xmlns:xlink="http://www.w3.org/1999/xlink" x="0px" y="0px"
	 width="116px" height="116px" viewBox="0 0 116 116" enable-background="new 0 0 116 116" xml:space="preserve">
<title>Ciencias Agrarias</title>
<desc>Created with Sketch.</desc>
<g>
	<path fill="#FFFFFF" d="M72.904,36.749c-1.043-1.523-3.122-1.914-4.646-0.871c-1.523,1.042-1.915,3.122-0.872,4.646
		C71.184,46.076,73.11,51.955,73.11,58c0,6.044-1.927,11.925-5.725,17.476c-1.043,1.523-0.651,3.603,0.872,4.646
		c0.577,0.395,1.234,0.584,1.885,0.584c1.065,0,2.113-0.509,2.762-1.456c4.571-6.684,6.89-13.833,6.89-21.25
		C79.794,50.583,77.476,43.434,72.904,36.749z"/>
	<path fill="#FFFFFF" d="M82.594,26.684c-1.16-1.435-3.266-1.658-4.7-0.496c-1.436,1.161-1.658,3.266-0.496,4.701
		C84.109,39.185,87.657,48.56,87.657,58c0,9.44-3.548,18.815-10.26,27.112c-1.162,1.435-0.939,3.538,0.496,4.7
		c0.618,0.501,1.361,0.744,2.1,0.744c0.975,0,1.94-0.424,2.601-1.24C90.28,79.817,94.342,68.989,94.342,58
		S90.28,36.183,82.594,26.684z"/>
	<path fill="#FFFFFF" d="M91.841,17.332c-1.194-1.409-3.304-1.583-4.711-0.39c-1.408,1.193-1.583,3.302-0.391,4.71
		C96.018,32.606,100.922,45.175,100.922,58c0,12.825-4.904,25.393-14.183,36.348c-1.192,1.408-1.018,3.517,0.391,4.71
		c0.629,0.532,1.396,0.792,2.158,0.792c0.948,0,1.892-0.401,2.553-1.182C102.155,86.491,107.605,72.428,107.605,58
		C107.605,43.572,102.155,29.509,91.841,17.332z"/>
	<path fill="#FFFFFF" d="M58.519,18.295h-1.104L57,18.56c-0.491,0.19-0.935,0.475-1.307,0.835l-0.006,0.004L31.629,40.426H12.183
		c-2.093,0-3.79,1.697-3.79,3.79v27.568c0,2.093,1.697,3.79,3.79,3.79h19.446l24.058,21.026l0.006,0.005
		c0.372,0.359,0.815,0.645,1.307,0.835l0.415,0.266h1.104c2.093,0,3.79-1.696,3.79-3.79V58V22.084
		C62.309,19.991,60.611,18.295,58.519,18.295z"/>
</g>
</svg>
