<?xml version="1.0" encoding="utf-8"?>
<!-- Generator: Adobe Illustrator 15.0.0, SVG Export Plug-In . SVG Version: 6.00 Build 0)  -->
<!DOCTYPE svg PUBLIC "-//W3C//DTD SVG 1.1//EN" "http://www.w3.org/Graphics/SVG/1.1/DTD/svg11.dtd">
<svg version="1.1" id="Camada_1" xmlns="http://www.w3.org/2000/svg" xmlns:xlink="http://www.w3.org/1999/xlink" x="0px" y="0px"
	 width="116px" height="116px" viewBox="0 0 116 116" enable-background="new 0 0 116 116" xml:space="preserve">
<title>Ciencias Agrarias</title>
<desc>Created with Sketch.</desc>
<g>
	<path fill="#FFFFFF" d="M105.821,7.684H10.181c-3.335,0-6.039,2.703-6.039,6.038V83.47c0,3.336,2.703,6.04,6.039,6.04h39.957
		c0.462,0.84,0.728,1.805,0.728,2.831v7.42c0,3.255-2.638,5.894-5.893,5.894h-4.085v2.662h34.229v-2.662h-4.086
		c-3.255,0-5.894-2.639-5.894-5.894v-7.42c0-1.026,0.266-1.991,0.728-2.831h39.958c3.334,0,6.037-2.704,6.037-6.04V13.721
		C111.858,10.386,109.155,7.684,105.821,7.684z M22.998,72.563h-1.414V53.308h1.414V72.563z M58,83.614
		c-2.047,0-3.708-1.66-3.708-3.709c0-2.048,1.661-3.707,3.708-3.707c2.048,0,3.708,1.659,3.708,3.707
		C61.709,81.954,60.049,83.614,58,83.614z M104.112,72.563H43.015V53.308h1.414v6.418c0,1.472,1.193,2.664,2.665,2.664
		c0.568,0,1.095-0.178,1.527-0.482l0.001,0.002l11.715-7.763c0.006-0.003,0.013-0.007,0.019-0.013l0.022-0.013l-0.002-0.002
		c0.694-0.48,1.148-1.282,1.148-2.188c0-0.382-0.082-0.744-0.229-1.073l12.8-9.796c0.131-0.083,0.221-0.228,0.221-0.395
		c0-0.259-0.21-0.468-0.468-0.468c-0.134,0-0.254,0.057-0.34,0.146l-12.673,9.804c-0.486-0.541-1.191-0.884-1.978-0.884
		c-0.419,0-0.813,0.099-1.166,0.271l-0.002-0.002l-0.015,0.01c-0.233,0.116-0.446,0.264-0.635,0.44l-7.39,5.123v-8.282
		c0-1.627-1.319-2.946-2.946-2.946H19.31c-1.627,0-2.947,1.318-2.947,2.946v25.738h-4.474V14.779h92.224V72.563z"/>
	<circle fill="#FFFFFF" cx="33.006" cy="33.74" r="8.588"/>
	<path fill="#FFFFFF" d="M72.961,39.716c0.239-0.224,0.559-0.351,0.887-0.351c0.716,0,1.299,0.583,1.299,1.3
		c0,0.433-0.214,0.831-0.571,1.074l-10.931,8.367c2.779,5.973,8.83,10.116,15.853,10.116c9.654,0,17.479-7.824,17.479-17.478H79.497
		V25.265c-9.653,0-17.479,7.826-17.479,17.479c0,1.7,0.248,3.342,0.701,4.896L72.961,39.716z"/>
	<path fill="#FFFFFF" d="M82.464,38.046c0.076,0.032,0.156,0.047,0.236,0.047c0.163,0,0.324-0.064,0.443-0.185l10.873-10.953
		c0.126-0.126,0.19-0.299,0.18-0.476c-0.009-0.177-0.095-0.341-0.233-0.452c-3.234-2.574-7.129-3.934-11.261-3.934
		c-0.346,0-0.626,0.279-0.626,0.623V37.47C82.076,37.723,82.23,37.951,82.464,38.046z M83.325,23.353
		c3.383,0.121,6.576,1.229,9.307,3.229l-9.307,9.375V23.353z"/>
	<path fill="#FFFFFF" d="M84.802,40.437c0.099,0.232,0.325,0.384,0.577,0.384h14.802c0.345,0,0.623-0.279,0.623-0.625
		c0-4.131-1.431-8.174-4.03-11.383c-0.111-0.137-0.276-0.222-0.452-0.23c-0.179-0.012-0.35,0.058-0.476,0.184l-10.91,10.991
		C84.76,39.936,84.706,40.204,84.802,40.437z M96.231,30.149c2.024,2.726,3.187,6.028,3.314,9.424H86.877L96.231,30.149z"/>
</g>
</svg>
