<?xml version="1.0" encoding="utf-8"?>
<!-- Generator: Adobe Illustrator 15.0.0, SVG Export Plug-In . SVG Version: 6.00 Build 0)  -->
<!DOCTYPE svg PUBLIC "-//W3C//DTD SVG 1.1//EN" "http://www.w3.org/Graphics/SVG/1.1/DTD/svg11.dtd">
<svg version="1.1" id="Camada_1" xmlns="http://www.w3.org/2000/svg" xmlns:xlink="http://www.w3.org/1999/xlink" x="0px" y="0px"
	 width="116px" height="116px" viewBox="0 0 116 116" enable-background="new 0 0 116 116" xml:space="preserve">
<title>Ciencias da Saude</title>
<desc>Created with Sketch.</desc>
<g id="App">
	<g id="Referências" transform="translate(-156.000000, -2244.000000)">
		<g id="Ciencias-da-Saude" transform="translate(160.000000, 2246.000000)">
			<path id="Shape" fill="#FFFFFF" d="M74.563,9.194c-3.396-2.788-5.765-2.125-9.172,3.951c-2.244,4.019-5.836,4.502-8.029,4.38
				l0.019-0.803c2.541-1.266,4.336-3.836,4.336-6.858c0-4.275-3.459-7.722-7.712-7.722c-4.259,0-7.729,3.447-7.729,7.721
				c0,3.021,1.795,5.592,4.344,6.849l0.006,0.814c-2.187,0.122-5.777-0.361-8.025-4.38c-3.4-6.077-5.77-6.74-9.157-3.952
				c-3.419,2.792-16.884,18.883-33.301,17.408c0,0,3.254,7.388,12.123,5.751c0,0,4.74,4.918,12.43,1.479
				c0,0,4.001,3.605,10.355,0.323c0,0,4.727,3.611,9.77,0.487c0,0,2.844,2.061,6.01,1.531l0.2,18.576
				c-0.358-0.073-0.646-0.151-1.027-0.225c0-0.006-5.49-1.185-11.308-2.815c-5.596-1.463-11.743-3.84-12.648-5.078
				c0.081-0.077,0.2-0.137,0.368-0.213c0.495-0.266,1.351-0.534,2.352-0.74c2.055-0.417,4.842-0.631,7.641-0.748
				c5.562-0.199,6.565,0.042,6.667,0.058c0.006-0.172,3.215,0.381,4.098-2.893c-0.035-0.021,0.066-0.159,0.007-0.228
				c-0.186-2.257-1.916-2.363-3.33-2.628c-2.297-0.302-1.099-0.179-4.202-0.143c-5.091,0.382-20.782-0.892-22.757,7.366
				c0,0.231-0.013,0.382-0.042,0.582c0.66,7.188,15.548,10.313,26.333,12.458c-3.665,2.509-5.616,5.768-6.399,9.982
				c-0.375,4.492,3.195,8.771,11.49,13.555c-6.298,4.452-10.435,8.646-10.099,13.7c0.589,4.124,4.229,9.636,11.381,13.116
				c0.022,0.006,0.029-0.01,0.046,0l0,0h0.02c0,0-5.007-7.646-5.343-11.824c-0.33-2.426,1.055-6.045,7.146-10.377l0.172,15.272
				h0.028c0.042,1.296,1.048,2.328,2.308,2.328c1.255,0,2.263-1.039,2.302-2.328h0.021l0.201-14.874
				c5.607,4.158,6.878,7.621,6.557,9.979c-0.33,4.181-5.324,11.824-5.324,11.824h0.014c0,0,0.018,0.006,0.043,0
				c7.152-3.479,10.801-8.981,11.375-13.106c0.335-5.06-3.796-9.25-10.084-13.697c8.273-4.78,11.854-9.065,11.486-13.561
				c-0.771-4.216-2.735-7.478-6.404-9.979c10.793-2.148,25.674-5.272,26.333-12.461c-0.026-0.199-0.042-0.352-0.042-0.583
				c-1.971-8.257-17.672-6.985-22.764-7.368c-3.102-0.033-1.895-0.157-4.194,0.144c-1.425,0.258-3.156,0.366-3.339,2.623
				c-0.055,0.071,0.043,0.208,0.015,0.236c0.884,3.275,4.095,2.714,4.104,2.893c0.09-0.016,1.093-0.257,6.666-0.057
				c2.795,0.115,5.567,0.323,7.623,0.746c1.019,0.208,1.852,0.475,2.357,0.741c0.16,0.077,0.293,0.137,0.371,0.217
				c-0.904,1.234-7.04,3.612-12.646,5.084c-5.813,1.613-11.318,2.791-11.332,2.797c-0.143,0.029-0.252,0.056-0.396,0.082
				l0.239-18.443c3.181,0.561,6.057-1.522,6.057-1.522c5.021,3.124,9.763-0.487,9.763-0.487c6.367,3.281,10.351-0.322,10.351-0.322
				c7.688,3.439,12.428-1.479,12.428-1.479c8.886,1.637,12.147-5.75,12.147-5.75C91.436,28.078,77.971,11.987,74.563,9.194z
				 M43.927,70.915c0.113-1.622-0.446-5.493,7.215-8.306l0.173,15.352c-1.481-0.939-3.01-1.898-4.565-2.891
				C44.696,73.796,43.731,72.078,43.927,70.915z M60.545,75.072c-1.354,0.871-2.665,1.682-3.959,2.503l0.197-14.72
				c6.994,2.793,6.469,6.479,6.588,8.064C63.561,72.078,62.598,73.796,60.545,75.072z"/>
		</g>
	</g>
</g>
</svg>
