<?xml version="1.0" encoding="utf-8"?>
<!-- Generator: Adobe Illustrator 15.0.0, SVG Export Plug-In . SVG Version: 6.00 Build 0)  -->
<!DOCTYPE svg PUBLIC "-//W3C//DTD SVG 1.1//EN" "http://www.w3.org/Graphics/SVG/1.1/DTD/svg11.dtd">
<svg version="1.1" id="Camada_1" xmlns="http://www.w3.org/2000/svg" xmlns:xlink="http://www.w3.org/1999/xlink" x="0px" y="0px"
	 width="116px" height="116px" viewBox="0 0 116 116" enable-background="new 0 0 116 116" xml:space="preserve">
<title>Ciencias Biologicas</title>
<desc>Created with Sketch.</desc>
<path fill="#FFFFFF" d="M112.516,30.754c-0.648-0.937-1.627-1.565-2.75-1.767c-2.344-0.428-4.547,1.16-4.957,3.428
	c-0.006,0.026-0.459,2.224-2.223,5.204L78.33,13.363c2.959-1.717,5.162-2.156,5.262-2.175c2.307-0.427,3.842-2.651,3.424-4.956
	c-0.412-2.281-2.611-3.872-4.959-3.44c-1.22,0.22-29.447,5.847-28.498,50.768C8.574,52.588,3.005,80.875,2.794,82.051
	c-0.252,1.375,0.189,2.785,1.179,3.776c0.612,0.61,1.385,1.021,2.238,1.178c2.336,0.427,4.538-1.132,4.977-3.399
	c0.019-0.109,0.454-2.311,2.174-5.274l24.307,24.308c-2.958,1.715-5.164,2.154-5.264,2.176c-2.303,0.427-3.838,2.65-3.42,4.957
	c0.156,0.858,0.566,1.641,1.181,2.256c0.796,0.795,1.897,1.252,3.019,1.252c0.251,0,0.505-0.023,0.764-0.069
	c1.217-0.221,29.441-5.858,28.49-50.769c45.019,0.967,50.553-27.312,50.77-28.494C113.408,32.824,113.163,31.69,112.516,30.754z
	 M75.58,53.166c-4.123,0.606-8.6,0.852-13.475,0.725c-0.127-4.849,0.108-9.369,0.703-13.495L75.58,53.166z M97.077,44.185
	c-3.195,2.792-7.144,5.019-11.769,6.636L65.122,30.638c1.612-4.654,3.829-8.61,6.614-11.795L97.077,44.185z M50.876,85.364
	c-1.612,4.651-3.829,8.608-6.614,11.794L18.844,71.736c3.183-2.785,7.138-5.002,11.792-6.61L50.876,85.364z M53.19,75.604
	L40.395,62.813c4.128-0.597,8.597-0.832,13.499-0.705C54.02,66.957,53.785,71.477,53.19,75.604z"/>
</svg>
