<?xml version="1.0" encoding="utf-8"?>
<!-- Generator: Adobe Illustrator 15.0.0, SVG Export Plug-In . SVG Version: 6.00 Build 0)  -->
<!DOCTYPE svg PUBLIC "-//W3C//DTD SVG 1.1//EN" "http://www.w3.org/Graphics/SVG/1.1/DTD/svg11.dtd">
<svg version="1.1" id="Camada_1" xmlns="http://www.w3.org/2000/svg" xmlns:xlink="http://www.w3.org/1999/xlink" x="0px" y="0px"
	 width="116px" height="116px" viewBox="0 0 116 116" enable-background="new 0 0 116 116" xml:space="preserve">
<title>Ciencias Humanas</title>
<desc>Created with Sketch.</desc>
<g>
	<path id="Shape" fill="#FFFFFF" d="M95.561,4.142c-1.064,0-1.928,0.863-1.928,1.927v28.779
		C86.777,19.691,71.514,9.121,53.827,9.121c-13.703,0-25.608,7.845-31.461,19.279V6.069c0-1.064-0.863-1.927-1.928-1.927
		S18.51,5.005,18.51,6.069v103.863c0,1.063,0.863,1.928,1.928,1.928s1.928-0.864,1.928-1.928V73.074h66.981
		c-7.813,17.624-25.471,29.949-45.956,29.949c-1.065,0-1.928,0.862-1.928,1.928c0,1.064,0.862,1.929,1.928,1.929
		c14.45,0,28.036-5.628,38.25-15.845c5.264-5.262,9.305-11.421,11.989-18.127v37.021c0,1.063,0.862,1.928,1.929,1.928
		c1.063,0,1.928-0.863,1.928-1.928V6.069C97.488,5.005,96.625,4.142,95.561,4.142z M53.827,12.976c4.461,0,8.755,0.738,12.762,2.098
		v23.239c-3.478-4.587-8.979-7.557-15.166-7.557H25.5C30.598,20.242,41.38,12.976,53.827,12.976z M22.366,69.218V58.773
		c2.512,4.324,6.121,7.934,10.445,10.443L22.366,69.218L22.366,69.218z M22.367,44.436c-0.001-3.43,0.553-6.731,1.572-9.824h17.23
		c-3.275,2.862-5.351,7.065-5.351,11.748c0,7.096,5.772,12.869,12.868,12.869c5.89,0,10.68-4.792,10.68-10.681
		c0-4.924-4.006-8.93-8.93-8.93c-4.151,0-7.529,3.378-7.529,7.529c0,1.065,0.864,1.928,1.929,1.928c1.063,0,1.928-0.863,1.928-1.928
		c0-2.025,1.648-3.674,3.673-3.674c2.799,0,5.075,2.276,5.075,5.075c0,3.763-3.063,6.824-6.825,6.824
		c-4.97,0-9.012-4.042-9.012-9.012c0-6.479,5.27-11.748,11.747-11.748c8.362,0,15.166,6.804,15.166,15.166
		c0,10.719-8.721,19.44-19.439,19.44C33.484,69.218,22.367,58.101,22.367,44.436z M90.871,69.218h-30.9
		c6.307-4.172,10.473-11.328,10.473-19.44V16.616c13.676,6.308,23.189,20.147,23.189,36.167
		C93.633,58.536,92.658,64.064,90.871,69.218z"/>
</g>
</svg>
