<?xml version="1.0" encoding="utf-8"?>
<!-- Generator: Adobe Illustrator 15.0.0, SVG Export Plug-In . SVG Version: 6.00 Build 0)  -->
<!DOCTYPE svg PUBLIC "-//W3C//DTD SVG 1.1//EN" "http://www.w3.org/Graphics/SVG/1.1/DTD/svg11.dtd">
<svg version="1.1" id="Camada_1" xmlns="http://www.w3.org/2000/svg" xmlns:xlink="http://www.w3.org/1999/xlink" x="0px" y="0px"
	 width="116px" height="116px" viewBox="0 0 116 116" enable-background="new 0 0 116 116" xml:space="preserve">
<title>Ciencias Exatas e da Terra</title>
<desc>Created with Sketch.</desc>
<g>
	<path fill="#FFFFFF" d="M53.113,45.554c-2.52,0.444-4.716,1.842-6.182,3.938c-1.468,2.095-2.03,4.637-1.584,7.156
		c0.807,4.584,4.769,7.917,9.421,7.917c0.55,0,1.111-0.049,1.672-0.147c2.521-0.444,4.718-1.843,6.186-3.938
		c1.466-2.095,2.028-4.636,1.584-7.155C63.307,48.19,58.418,44.602,53.113,45.554z"/>
	<path fill="#FFFFFF" d="M111.723,44.944c-0.836-4.727-5.33-8.029-10.227-7.159c-0.453,0.081-0.879,0.225-1.305,0.369
		c-3.924-3.158-9.932-5.42-17.514-6.589c0.027-1.451,0.014-2.871-0.055-4.246C82.066,16.325,78.4,9.048,72.305,6.829
		c-1.244-0.453-2.57-0.682-3.941-0.682c-6.215,0-13.285,4.884-19.851,12.984c-6.408-3.875-12.514-6.082-17.684-6.201
		c-0.236-0.395-0.478-0.789-0.783-1.152c-1.683-2.002-4.146-3.151-6.764-3.151c-2.069,0-4.083,0.733-5.671,2.065
		c-3.728,3.129-4.215,8.708-1.087,12.436c0.314,0.375,0.682,0.688,1.047,1c-0.743,5.034,0.336,11.394,3.018,18.397
		C9.416,48.718,3.006,56.497,4.309,63.885c1.295,7.346,9.637,12.53,22.57,14.525c-0.027,1.447-0.014,2.867,0.055,4.24
		c0.292,5.799,1.471,10.526,3.394,14.06c-0.232,0.414-0.436,0.845-0.6,1.298c-0.807,2.215-0.702,4.612,0.294,6.748
		c0.997,2.139,2.765,3.76,4.981,4.563c0.973,0.354,1.989,0.535,3.019,0.535c3.696,0,7.029-2.336,8.293-5.81
		c0.168-0.46,0.272-0.931,0.361-1.403c4.719-1.881,9.669-6.002,14.369-11.799c6.592,3.982,12.872,6.225,18.133,6.225
		c3.438,0,6.311-0.95,8.545-2.824c4.971-4.169,5.926-12.262,2.686-22.783c-0.407-1.32-0.885-2.668-1.41-4.029
		c6.546-3.632,11.447-7.81,14.119-12.132c0.479-0.005,0.96-0.042,1.445-0.127c2.322-0.41,4.347-1.698,5.699-3.629
		C111.611,49.611,112.132,47.267,111.723,44.944z M78.445,56.402c1.839,3.018,3.465,6.024,4.803,8.967
		c-2.846,1.354-6.007,2.625-9.441,3.775c0.883-2.053,1.739-4.146,2.528-6.313C77.116,60.686,77.805,58.54,78.445,56.402z
		 M72.104,61.291c-1.242,3.41-2.598,6.6-4.021,9.604c-3.182,0.859-6.549,1.623-10.104,2.25c-3.474,0.611-6.912,1.039-10.297,1.317
		c-2.392-2.369-4.75-4.913-7.025-7.626c-2.322-2.768-4.412-5.518-6.296-8.221c0.86-3.28,1.881-6.604,3.094-9.936
		c1.241-3.409,2.598-6.597,4.02-9.599c3.181-0.862,6.549-1.622,10.103-2.249c3.474-0.613,6.913-1.042,10.299-1.32
		c2.394,2.369,4.749,4.912,7.024,7.625c2.271,2.707,4.363,5.473,6.289,8.251C74.33,54.656,73.313,57.97,72.104,61.291z
		 M65.368,76.216c-1.735,3.157-3.54,6.021-5.377,8.575c-2.623-1.813-5.286-3.906-7.94-6.247c2.224-0.263,4.458-0.567,6.711-0.967
		C61.018,77.182,63.219,76.72,65.368,76.216z M41.696,74.77c-0.727,0.016-1.461,0.051-2.181,0.051c-2.785,0-5.429-0.135-7.936-0.372
		c0.253-3.214,0.75-6.58,1.443-10.032c1.326,1.775,2.702,3.552,4.182,5.314C38.675,71.482,40.178,73.152,41.696,74.77z
		 M31.101,53.602c-1.896-3.101-3.507-6.113-4.818-8.989c2.853-1.361,6.023-2.632,9.471-3.789c-0.886,2.052-1.741,4.145-2.531,6.315
		C32.438,49.298,31.747,51.454,31.101,53.602z M44.188,33.758c1.735-3.16,3.54-6.022,5.376-8.579
		c2.623,1.814,5.288,3.908,7.943,6.251c-2.225,0.261-4.46,0.567-6.713,0.964C48.537,32.793,46.336,33.252,44.188,33.758z
		 M72.352,40.241c-1.47-1.751-2.972-3.421-4.488-5.037c0.727-0.015,1.459-0.05,2.179-0.05c2.787,0,5.431,0.136,7.937,0.374
		c-0.254,3.212-0.752,6.581-1.443,10.032C75.197,43.771,73.818,41.992,72.352,40.241z M68.363,10.651
		c0.844,0,1.652,0.137,2.402,0.411c4.226,1.537,6.906,7.546,7.358,16.484c0.058,1.125,0.069,2.288,0.058,3.47
		c-2.576-0.234-5.283-0.367-8.142-0.367c-2.12,0-4.283,0.095-6.461,0.231c-3.731-3.566-7.526-6.683-11.267-9.279
		C58.142,14.54,63.995,10.651,68.363,10.651z M21.815,26.119c0.486,0.083,0.974,0.162,1.475,0.162c2.07,0,4.083-0.734,5.67-2.065
		c2.059-1.728,3.089-4.204,3.107-6.704c4.017,0.413,8.723,2.243,13.71,5.217c-2.646,3.716-5.168,7.936-7.476,12.575
		c-5.017,1.472-9.636,3.227-13.754,5.187C22.439,34.882,21.545,29.953,21.815,26.119z M8.745,63.102
		c-0.872-4.949,4.118-11.133,13.579-16.456c1.892,4.144,4.301,8.446,7.192,12.793c-1.209,4.983-2.025,9.85-2.4,14.443
		C16.634,72.184,9.656,68.271,8.745,63.102z M46.244,97.93c-0.08-0.212-0.127-0.431-0.223-0.634c-0.997-2.138-2.765-3.76-4.98-4.563
		c-0.973-0.354-1.99-0.533-3.019-0.533c-1.562,0-3.047,0.437-4.349,1.179c-1.24-2.806-2.016-6.517-2.24-10.95
		c-0.057-1.126-0.071-2.287-0.057-3.47c2.576,0.233,5.283,0.367,8.14,0.367c2.122,0,4.285-0.095,6.464-0.231
		c3.73,3.567,7.523,6.682,11.265,9.277C53.446,92.971,49.645,96.227,46.244,97.93z M86.102,72.786
		c2.635,8.553,2.168,15.114-1.274,18.006c-1.401,1.175-3.302,1.771-5.649,1.771c-4.353,0-9.697-1.92-15.396-5.317
		c2.646-3.718,5.169-7.938,7.478-12.577c4.999-1.465,9.603-3.214,13.71-5.167C85.384,70.607,85.77,71.707,86.102,72.786z
		 M87.252,63.314c-1.927-4.201-4.363-8.502-7.211-12.782c1.21-4.983,2.023-9.847,2.4-14.441c5.863,0.952,10.621,2.595,13.841,4.765
		c-1.605,1.929-2.416,4.498-1.947,7.154c0.464,2.63,2.054,4.811,4.224,6.083C96.297,57.194,92.454,60.386,87.252,63.314z"/>
</g>
</svg>
