<?xml version="1.0" encoding="utf-8"?>
<!-- Generator: Adobe Illustrator 15.0.0, SVG Export Plug-In . SVG Version: 6.00 Build 0)  -->
<!DOCTYPE svg PUBLIC "-//W3C//DTD SVG 1.1//EN" "http://www.w3.org/Graphics/SVG/1.1/DTD/svg11.dtd">
<svg version="1.1" id="Camada_1" xmlns="http://www.w3.org/2000/svg" xmlns:xlink="http://www.w3.org/1999/xlink" x="0px" y="0px"
	 width="116px" height="116px" viewBox="0 0 116 116" enable-background="new 0 0 116 116" xml:space="preserve">
<title>Ciencias Sociais Aplicadas</title>
<desc>Created with Sketch.</desc>
<g>
	<path id="Shape" fill="#FFFFFF" d="M68.963,94.691h-7.146v-65.84h30.111l-12.756,20.35c-0.646,1.032-0.339,2.396,0.688,3.046
		c0.365,0.23,0.77,0.34,1.17,0.34c0.729,0,1.443-0.365,1.859-1.031l11.062-17.65l11.062,17.65c0.646,1.032,2.004,1.341,3.028,0.691
		c1.026-0.65,1.334-2.015,0.688-3.046l-12.754-20.35h0.16c1.881,0,3.404-1.533,3.404-3.424c0-1.891-1.523-3.423-3.404-3.423H71.091
		c-1.415-2.069-3.502-3.635-5.946-4.378c-0.349-3.98-3.67-7.102-7.719-7.102s-7.37,3.122-7.72,7.102
		c-2.444,0.743-4.531,2.309-5.945,4.378H18.715c-1.88,0-3.405,1.533-3.405,3.423c0,1.89,1.524,3.424,3.405,3.424h0.161L6.123,49.201
		c-0.647,1.032-0.339,2.396,0.687,3.046c0.364,0.23,0.769,0.34,1.169,0.34c0.729,0,1.443-0.365,1.861-1.031l11.061-17.65
		l11.061,17.65c0.646,1.032,2.003,1.341,3.029,0.691c1.026-0.65,1.333-2.015,0.688-3.046l-12.754-20.35h30.109v65.838h-7.145
		c-4.275,0-7.741,3.485-7.741,7.785h38.558C76.704,98.176,73.236,94.691,68.963,94.691z"/>
	<path id="Shape_1_" fill="#FFFFFF" d="M37.061,54.937H4.738c-0.647,0-1.171,0.527-1.171,1.177c0,9.612,7.775,17.429,17.333,17.429
		s17.333-7.816,17.333-17.429C38.232,55.463,37.707,54.937,37.061,54.937z"/>
	<path id="Shape_2_" fill="#FFFFFF" d="M110.111,54.937H77.789c-0.646,0-1.171,0.527-1.171,1.177
		c0,9.612,7.774,17.429,17.332,17.429c9.559,0,17.333-7.816,17.333-17.429C111.282,55.463,110.76,54.937,110.111,54.937z"/>
</g>
</svg>
