<?xml version="1.0" encoding="utf-8"?>
<!-- Generator: Adobe Illustrator 15.0.0, SVG Export Plug-In . SVG Version: 6.00 Build 0)  -->
<!DOCTYPE svg PUBLIC "-//W3C//DTD SVG 1.1//EN" "http://www.w3.org/Graphics/SVG/1.1/DTD/svg11.dtd">
<svg version="1.1" id="Camada_1" xmlns="http://www.w3.org/2000/svg" xmlns:xlink="http://www.w3.org/1999/xlink" x="0px" y="0px"
	 width="116px" height="116px" viewBox="0 0 116 116" enable-background="new 0 0 116 116" xml:space="preserve">
<title>Ciencias Agrarias</title>
<desc>Created with Sketch.</desc>
<g id="App">
	<g id="Referências" transform="translate(-380.000000, -2244.000000)">
		<g id="Ciencias-Agrarias" transform="translate(384.000000, 2246.000000)">
			<path id="Shape" fill="#FFFFFF" d="M77.882,19.643C65.77,22.86,61.559,33.413,62.258,37.822c0.223-0.136,0.439-0.266,0.663-0.408
				c1.063-0.661,2.224-1.286,3.427-1.931c1.192-0.649,2.48-1.251,3.777-1.861c0.65-0.308,1.335-0.578,2.012-0.856l1.02-0.42
				c0.438-0.174,0.711-0.246,1.07-0.375l2.045-0.688c0.709-0.205,1.414-0.405,2.111-0.606c1.411-0.395,2.776-0.742,4.105-1.019
				c2.652-0.611,5.146-1.055,7.291-1.391c4.298-0.662,7.229-0.788,7.229-0.788s-0.669,0.291-1.843,0.797
				c-1.179,0.496-2.858,1.153-4.881,1.939c-1.021,0.375-2.113,0.782-3.272,1.212c-1.16,0.417-2.388,0.854-3.652,1.308
				c-1.254,0.447-2.539,0.913-3.855,1.388c-1.287,0.439-2.629,0.96-3.977,1.482c-1.256,0.476-2.559,1.107-3.84,1.621
				c-1.27,0.584-3.445,1.351-4.68,1.883c-1.482,0.63-2.423,0.971-3.365,1.477C53.074,46.824,48.39,57.869,45.534,69.557
				c-0.507-10.979-2.783-21.63-10.618-29.486c0.007-0.005,0.019-0.007,0.026-0.014c-1.063-1.004-2.164-2.085-3.299-3.243
				c-0.932-0.972-1.916-1.938-2.875-2.968c-0.984-0.97-1.951-2.056-2.938-2.981c-1.052-1.004-2.089-2-3.115-2.908
				c-1.036-0.94-2.049-1.868-3.036-2.769c-1.001-0.907-1.968-1.782-2.883-2.619c-0.907-0.844-1.771-1.645-2.563-2.386
				c-1.574-1.502-2.884-2.762-3.783-3.676c-0.89-0.922-1.396-1.449-1.396-1.449s2.655,1.248,6.378,3.518
				c1.856,1.141,3.992,2.513,6.219,4.102c1.121,0.773,2.251,1.621,3.406,2.528c0.568,0.458,1.146,0.913,1.72,1.374l1.63,1.425
				c0.286,0.26,0.51,0.427,0.848,0.76l0.787,0.783c0.524,0.521,1.051,1.036,1.535,1.567c0.976,1.063,1.931,2.119,2.794,3.179
				c0.866,1.06,1.701,2.085,2.435,3.107c0.156,0.22,0.302,0.42,0.457,0.632c2.316-3.803,2.407-15.183-7.579-22.839
				C18.808,6.868,3.652,10.604-2.693,7.523c6.408,9.916,5.178,16.535,15.941,27.417c7.193,7.281,13.912,7.73,18.438,6.465
				c9.205,8.963,10.641,22.629,10.646,35.704c-0.942-0.771-2.087-1.377-3.407-1.377c-3.726,0-6.438,2.119-7.738,5.143
				c-8.2-2.823-13.646,3.739-14.118,9.266c-3.902-1.467-8.852,3.072-8.852,7.019c0,3.896,3.043,7.049,6.855,7.212l60.362,0.107
				c0,0,6.43-3.508,6.43-7.32c0-4-3.202-7.245-7.152-7.245c-0.548,0-1.072,0.073-1.579,0.19c0.032-0.281-0.69-12.576-11.253-7.639
				c-0.818-3.847-1.896-6.732-8.242-6.732c-3.125,0-5.24,1.146-6.596,2.314c2.643-13.598,6.729-27.806,18.628-34.833
				c0.132-0.075,0.199-0.175,0.291-0.265c3.681,2.985,10.11,5.292,19.657,1.282c14.051-5.904,15.412-12.496,25.076-19.184
				C103.672,25.444,91.074,16.141,77.882,19.643z M44.987,80.335l0.395-0.401c-0.198,0.313-0.321,0.541-0.321,0.541
				S45.021,80.396,44.987,80.335z"/>
		</g>
	</g>
</g>
</svg>
