<?xml version="1.0" encoding="utf-8"?>
<!-- Generator: Adobe Illustrator 15.0.0, SVG Export Plug-In . SVG Version: 6.00 Build 0)  -->
<!DOCTYPE svg PUBLIC "-//W3C//DTD SVG 1.1//EN" "http://www.w3.org/Graphics/SVG/1.1/DTD/svg11.dtd">
<svg version="1.1" id="Camada_1" xmlns="http://www.w3.org/2000/svg" xmlns:xlink="http://www.w3.org/1999/xlink" x="0px" y="0px"
	 width="116px" height="116px" viewBox="0 0 116 116" enable-background="new 0 0 116 116" xml:space="preserve">
<title>Ciencias Agrarias</title>
<desc>Created with Sketch.</desc>
<g>
	<path fill="#FFFFFF" d="M33.931,21.072h48.14c0.932,0,0.763-0.293,0.763-0.655s0.169-0.655-0.763-0.655h-48.14
		c-0.932,0-0.763,0.293-0.763,0.655S32.999,21.072,33.931,21.072z"/>
	<path fill="#FFFFFF" d="M33.931,27.547h48.14c0.932,0,0.763-0.292,0.763-0.654s0.169-0.656-0.763-0.656h-48.14
		c-0.932,0-0.763,0.294-0.763,0.656S32.999,27.547,33.931,27.547z"/>
	<path fill="#FFFFFF" d="M33.931,34.022h48.14c0.932,0,0.763-0.293,0.763-0.655s0.169-0.655-0.763-0.655h-48.14
		c-0.932,0-0.763,0.293-0.763,0.655S32.999,34.022,33.931,34.022z"/>
	<path fill="#FFFFFF" d="M33.931,40.497h48.14c0.932,0,0.763-0.293,0.763-0.654c0-0.362,0.169-0.656-0.763-0.656h-48.14
		c-0.932,0-0.763,0.294-0.763,0.656C33.168,40.204,32.999,40.497,33.931,40.497z"/>
	<path fill="#FFFFFF" d="M33.931,46.973h48.14c0.932,0,0.763-0.293,0.763-0.655s0.169-0.656-0.763-0.656h-48.14
		c-0.932,0-0.763,0.294-0.763,0.656S32.999,46.973,33.931,46.973z"/>
	<path fill="#FFFFFF" d="M33.931,53.447h48.14c0.932,0,0.763-0.293,0.763-0.655s0.169-0.655-0.763-0.655h-48.14
		c-0.932,0-0.763,0.293-0.763,0.655S32.999,53.447,33.931,53.447z"/>
	<path fill="#FFFFFF" d="M33.931,59.922h48.14c0.932,0,0.763-0.291,0.763-0.654c0-0.361,0.169-0.656-0.763-0.656h-48.14
		c-0.932,0-0.763,0.295-0.763,0.656C33.168,59.631,32.999,59.922,33.931,59.922z"/>
	<path fill="#FFFFFF" d="M33.931,66.398h48.14c0.932,0,0.763-0.293,0.763-0.656c0-0.361,0.169-0.654-0.763-0.654h-48.14
		c-0.932,0-0.763,0.293-0.763,0.654C33.168,66.105,32.999,66.398,33.931,66.398z"/>
	<path fill="#FFFFFF" d="M33.931,72.873h48.14c0.932,0,0.763-0.293,0.763-0.654c0-0.363,0.169-0.656-0.763-0.656h-48.14
		c-0.932,0-0.763,0.293-0.763,0.656C33.168,72.58,32.999,72.873,33.931,72.873z"/>
	<path fill="#FFFFFF" d="M33.931,79.348h48.14c0.932,0,0.763-0.293,0.763-0.654c0-0.363,0.169-0.656-0.763-0.656h-48.14
		c-0.932,0-0.763,0.293-0.763,0.656C33.168,79.055,32.999,79.348,33.931,79.348z"/>
	<path fill="#FFFFFF" d="M33.931,85.822H70.97c0.933,0,0.764-0.293,0.764-0.654c0-0.363,0.169-0.656-0.764-0.656H33.931
		c-0.932,0-0.763,0.293-0.763,0.656C33.168,85.529,32.999,85.822,33.931,85.822z"/>
	<path fill="#FFFFFF" d="M84.652,5.559H31.348c-2.667,0-4.827,2.161-4.827,4.827v95.228c0,2.666,2.16,4.828,4.827,4.828h53.305
		c2.665,0,4.827-2.162,4.827-4.828V10.386C89.479,7.72,87.317,5.559,84.652,5.559z M48.043,103.832
		c-0.933,0-1.688-0.756-1.688-1.688s0.756-1.688,1.688-1.688c0.932,0,1.688,0.756,1.688,1.688S48.975,103.832,48.043,103.832z
		 M58,105.766c-1.999,0-3.62-1.621-3.62-3.621c0-1.998,1.621-3.621,3.62-3.621c2,0,3.62,1.623,3.62,3.621
		C61.62,104.145,60,105.766,58,105.766z M67.957,103.832c-0.932,0-1.688-0.756-1.688-1.688s0.756-1.688,1.688-1.688
		c0.933,0,1.688,0.756,1.688,1.688S68.89,103.832,67.957,103.832z M86.746,92.459H29.254V12.96h57.492V92.459z"/>
</g>
</svg>
