<?xml version="1.0" encoding="utf-8"?>
<!-- Generator: Adobe Illustrator 15.0.0, SVG Export Plug-In . SVG Version: 6.00 Build 0)  -->
<!DOCTYPE svg PUBLIC "-//W3C//DTD SVG 1.1//EN" "http://www.w3.org/Graphics/SVG/1.1/DTD/svg11.dtd">
<svg version="1.1" id="Camada_1" xmlns="http://www.w3.org/2000/svg" xmlns:xlink="http://www.w3.org/1999/xlink" x="0px" y="0px"
	 width="116px" height="116px" viewBox="0 0 116 116" enable-background="new 0 0 116 116" xml:space="preserve">
<title>Engenharias</title>
<desc>Created with Sketch.</desc>
<g id="Engenharias" transform="translate(609.000000, 1988.000000)">
	<path id="Shape" fill="#FFFFFF" d="M-502.081-1885.958h-97.882c-2.704,0-4.896,2.19-4.896,4.897c0,2.703,2.191,4.894,4.896,4.894
		h97.878c2.705,0,4.896-2.19,4.896-4.894C-497.191-1883.768-499.382-1885.958-502.081-1885.958z"/>
	<path id="Shape_1_" fill="#FFFFFF" d="M-593.846-1898.686c-2.704,0-4.896,2.19-4.896,4.896c0,2.704,2.191,4.896,4.896,4.896h85.645
		c2.705,0,4.896-2.191,4.896-4.896c0-2.705-2.19-4.896-4.896-4.896h-1.223v-44.047h1.223c1.355,0,2.445-1.095,2.445-2.446
		c0-1.349-1.096-2.445-2.445-2.445h-85.645c-1.353,0-2.445,1.096-2.445,2.445c0,1.351,1.095,2.446,2.445,2.446h1.224v44.047
		H-593.846L-593.846-1898.686z M-519.213-1942.733v44.047h-14.682v-44.047H-519.213z M-543.684-1942.733v44.047h-14.684v-44.047
		H-543.684z M-582.836-1942.733h14.681v44.047h-14.681V-1942.733L-582.836-1942.733z"/>
	<path id="Shape_2_" fill="#FFFFFF" d="M-599.963-1952.024h97.878h0.049c2.707,0,4.896-2.191,4.896-4.896
		c0-2.149-1.385-3.971-3.309-4.631l-48.561-21.854c-1.278-0.573-2.738-0.573-4.017,0l-48.944,22.022
		c-2.106,0.949-3.264,3.236-2.777,5.491C-604.265-1953.635-602.271-1952.024-599.963-1952.024z"/>
</g>
</svg>
