<?xml version="1.0" encoding="utf-8"?>
<!-- Generator: Adobe Illustrator 15.0.0, SVG Export Plug-In . SVG Version: 6.00 Build 0)  -->
<!DOCTYPE svg PUBLIC "-//W3C//DTD SVG 1.1//EN" "http://www.w3.org/Graphics/SVG/1.1/DTD/svg11.dtd">
<svg version="1.1" id="Camada_1" xmlns="http://www.w3.org/2000/svg" xmlns:xlink="http://www.w3.org/1999/xlink" x="0px" y="0px"
	 width="116px" height="116px" viewBox="0 0 116 116" enable-background="new 0 0 116 116" xml:space="preserve">
<title>Ciencias Agrarias</title>
<desc>Created with Sketch.</desc>
<g>
	<path fill="#FFFFFF" d="M13.264,33.17c1.389,2.531,3.623,4.926,6.533,6.761c2.695,1.698,5.576,2.664,8.277,2.926
		c1.624,0.269,4.538,0.313,4.538,0.313c3.423,0.18,12.792,9.64,12.792,9.64l4.595,4.593l9.953-9.954l-4.594-4.594l-0.08-0.065
		c-8.428-8.563-10.461-11.827-10.461-11.827c-0.744-1.41-1.021-3.542-1.125-4.887c0.119-4.452-1.564-9.013-5.003-12.516
		c-3.244-3.305-14.574-4.07-17.757-4.092l-1.34,2.453l12.9,7.568c0,0,0.191,3.999-1.714,8.283c-1.903,4.283-6.283,5.997-6.283,5.997
		l-12.853-7.426L11.041,27.2c0.352,2.068,1.098,4.095,2.232,5.96L13.264,33.17z"/>
	<path fill="#FFFFFF" d="M94.15,79.938l12.853,7.428l0.604-0.855c-0.354-2.069-1.1-4.095-2.233-5.96l0.012-0.011
		c-1.391-2.532-3.623-4.928-6.534-6.761c-2.697-1.699-5.576-2.665-8.277-2.926c-1.625-0.27-4.538-0.314-4.538-0.314
		c-3.423-0.18-12.792-9.639-12.792-9.639l-5.763-5.762l-9.954,9.955l5.763,5.762l0.079,0.066c8.428,8.563,10.46,11.825,10.46,11.825
		c0.746,1.41,1.023,3.543,1.126,4.888c-0.119,4.452,1.564,9.013,5.004,12.516c3.244,3.306,14.574,4.07,17.756,4.092l1.34-2.453
		l-12.9-7.568c0,0-0.19-3.998,1.715-8.282C89.771,81.652,94.15,79.938,94.15,79.938z"/>
	<path fill="#FFFFFF" d="M88.427,30.163l5.18-1.374l8.556-12.36l-3.665-3.665l-12.373,8.614l-1.361,5.121L48.747,62.513
		l-4.824-3.298l-2.771,2.771c0.938,3.196-2.144,7.423-7.194,9.693c-1.665,0.747-3.346,1.195-4.916,1.357L12.974,89.104l-4.562,4.563
		l-0.004,0.004c-0.18,2.693,1.254,6.069,4.015,8.831c2.762,2.761,6.138,4.194,8.831,4.015l0.004-0.003l4.562-4.563l16.032-16.033
		c0.198-1.503,0.649-3.102,1.374-4.687c2.283-5.011,6.445-8.127,9.637-7.384l2.848-2.846l-3.297-4.826L88.427,30.163z"/>
</g>
</svg>
