<?xml version="1.0" encoding="utf-8"?>
<!-- Generator: Adobe Illustrator 15.0.0, SVG Export Plug-In . SVG Version: 6.00 Build 0)  -->
<!DOCTYPE svg PUBLIC "-//W3C//DTD SVG 1.1//EN" "http://www.w3.org/Graphics/SVG/1.1/DTD/svg11.dtd">
<svg version="1.1" id="Camada_1" xmlns="http://www.w3.org/2000/svg" xmlns:xlink="http://www.w3.org/1999/xlink" x="0px" y="0px"
	 width="116px" height="116px" viewBox="0 0 116 116" enable-background="new 0 0 116 116" xml:space="preserve">
<title>Ciencias Agrarias</title>
<desc>Created with Sketch.</desc>
<g>
	<path fill="#FFFFFF" d="M87.988,58.684H55.938c0-0.107-0.011-0.215-0.033-0.325c-0.026-0.133-2.583-13.384,8.954-19.929
		c13.174-7.474,9.611-26.725,9.453-27.542c-0.171-0.881-1.027-1.452-1.903-1.286c-0.88,0.171-1.455,1.023-1.284,1.903
		c0.034,0.177,3.298,17.764-7.868,24.099C50.765,42.691,52.318,56.43,52.668,58.684H28.014c-13.185,0-23.872,10.688-23.872,23.871
		s10.688,23.871,23.872,23.871c8.816,0,16.511-4.784,20.645-11.894h18.685c4.134,7.109,11.828,11.894,20.646,11.894
		c13.183,0,23.87-10.688,23.87-23.871S101.171,58.684,87.988,58.684z M37.396,83.943h-7.927v7.927H24.22v-7.927h-7.927v-5.249h7.927
		v-7.927h5.249v7.927h7.927V83.943z M52.866,79.515H47.29v-1.53h5.576V79.515z M68.611,79.515h-5.576v-1.53h5.576V79.515z
		 M80.522,86.294c-2.295,0-4.155-1.86-4.155-4.155c0-2.294,1.86-4.154,4.155-4.154c2.294,0,4.154,1.86,4.154,4.154
		C84.677,84.434,82.816,86.294,80.522,86.294z M90.253,96.024c-2.294,0-4.154-1.86-4.154-4.154c0-2.295,1.86-4.155,4.154-4.155
		c2.295,0,4.155,1.86,4.155,4.155C94.408,94.164,92.548,96.024,90.253,96.024z M90.253,76.563c-2.294,0-4.154-1.86-4.154-4.154
		c0-2.295,1.86-4.155,4.154-4.155c2.295,0,4.155,1.86,4.155,4.155C94.408,74.702,92.548,76.563,90.253,76.563z M99.984,86.294
		c-2.294,0-4.155-1.86-4.155-4.155c0-2.294,1.861-4.154,4.155-4.154s4.154,1.86,4.154,4.154
		C104.139,84.434,102.278,86.294,99.984,86.294z"/>
</g>
</svg>
