<?xml version="1.0" encoding="utf-8"?>
<!-- Generator: Adobe Illustrator 15.0.0, SVG Export Plug-In . SVG Version: 6.00 Build 0)  -->
<!DOCTYPE svg PUBLIC "-//W3C//DTD SVG 1.1//EN" "http://www.w3.org/Graphics/SVG/1.1/DTD/svg11.dtd">
<svg version="1.1" id="Camada_1" xmlns="http://www.w3.org/2000/svg" xmlns:xlink="http://www.w3.org/1999/xlink" x="0px" y="0px"
	 width="116px" height="116px" viewBox="0 0 116 116" enable-background="new 0 0 116 116" xml:space="preserve">
<title>Ciencias Agrarias</title>
<desc>Created with Sketch.</desc>
<g>
	<path fill="#FFFFFF" d="M109.418,14.502H6.581c-1.347,0-2.439,1.092-2.439,2.438V99.06c0,1.347,1.092,2.438,2.439,2.438h102.837
		c1.348,0,2.44-1.091,2.44-2.438V16.94C111.858,15.594,110.766,14.502,109.418,14.502z M104.882,94.854H13.556
		c-1.347,0-2.439-1.093-2.439-2.438V21.145h91.325c1.348,0,2.439,1.092,2.439,2.439V94.854z"/>
	<circle fill="#FFFFFF" cx="88.417" cy="37.764" r="9.877"/>
	<polygon fill="#FFFFFF" points="63.507,67.396 37.634,34.88 17.705,88.374 98.295,88.374 77.841,58.205 	"/>
</g>
</svg>
