<?xml version="1.0" encoding="utf-8"?>
<!-- Generator: Adobe Illustrator 15.0.0, SVG Export Plug-In . SVG Version: 6.00 Build 0)  -->
<!DOCTYPE svg PUBLIC "-//W3C//DTD SVG 1.1//EN" "http://www.w3.org/Graphics/SVG/1.1/DTD/svg11.dtd">
<svg version="1.1" id="Camada_1" xmlns="http://www.w3.org/2000/svg" xmlns:xlink="http://www.w3.org/1999/xlink" x="0px" y="0px"
	 width="116px" height="116px" viewBox="0 0 116 116" enable-background="new 0 0 116 116" xml:space="preserve">
<title>Ciencias Agrarias</title>
<desc>Created with Sketch.</desc>
<g>
	<path fill="#FFFFFF" d="M89.262,94.393L74.971,72.638c-14.109-7.66-19.745,12.061-37.499,5.414L26.737,94.393l-0.005,0.009
		c-1.21,2.021-1.21,4.039-1.21,4.039c0,2.991,1.868,5.416,4.172,5.416H58l0,0h28.307c2.304,0,4.172-2.425,4.172-5.416
		c0,0,0-2.019-1.211-4.039L89.262,94.393z"/>
	<circle fill="#FFFFFF" cx="52.064" cy="65.052" r="5.07"/>
	<circle fill="#FFFFFF" cx="56.368" cy="16.984" r="4.782"/>
	<circle fill="#FFFFFF" cx="62.437" cy="8.853" r="3.294"/>
	<circle fill="#FFFFFF" cx="58.922" cy="49.117" r="5.629"/>
	<path fill="#FFFFFF" d="M98.586,96.973c-0.018-0.029-0.034-0.058-0.054-0.087L70.535,54.27V42.853
		c2.706-0.205,4.622-2.144,4.622-4.761v-9.523c0-2.769-2.144-4.778-5.097-4.778H45.94c-2.954,0-5.098,2.009-5.098,4.778v9.523
		c0,2.618,1.916,4.557,4.622,4.761V54.27L17.467,96.886c-0.015,0.022-0.032,0.052-0.049,0.079c-1.617,2.704-1.636,5.415-1.636,5.53
		c0,4.381,2.916,7.946,6.5,7.946h71.434c3.585,0,6.5-3.565,6.5-7.946C100.217,102.381,100.198,99.675,98.586,96.973z
		 M93.717,107.133H22.283c-1.731,0-3.193-2.123-3.193-4.629c0-0.02,0.035-1.946,1.165-3.838L48.5,55.671
		c0.177-0.27,0.271-0.585,0.271-0.907V41.216c0-0.913-0.741-1.653-1.654-1.653H45.94c-1.105,0-1.791-0.564-1.791-1.472v-9.523
		c0-0.908,0.686-1.471,1.791-1.471h24.121c1.104,0,1.79,0.563,1.79,1.471v9.523c0,0.908-0.686,1.472-1.79,1.472h-1.179
		c-0.913,0-1.652,0.74-1.652,1.653v13.548c0,0.322,0.094,0.638,0.271,0.907l28.245,42.995c1.13,1.892,1.165,3.818,1.165,3.829
		C96.91,105.01,95.447,107.133,93.717,107.133z"/>
</g>
</svg>
