<?xml version="1.0" encoding="utf-8"?>
<!-- Generator: Adobe Illustrator 15.0.0, SVG Export Plug-In . SVG Version: 6.00 Build 0)  -->
<!DOCTYPE svg PUBLIC "-//W3C//DTD SVG 1.1//EN" "http://www.w3.org/Graphics/SVG/1.1/DTD/svg11.dtd">
<svg version="1.1" id="Camada_1" xmlns="http://www.w3.org/2000/svg" xmlns:xlink="http://www.w3.org/1999/xlink" x="0px" y="0px"
	 width="116px" height="116px" viewBox="0 0 116 116" enable-background="new 0 0 116 116" xml:space="preserve">
<title>Linguistica, Letras e Artes</title>
<desc>Created with Sketch.</desc>
<g>
	<path id="Fill-1" fill="#FFFFFF" d="M58.001,4.001C28.075,4.001,4.142,27.996,4.142,58s23.934,53.999,53.859,53.999
		c4.796,0,8.972-4.187,8.972-8.994c0-2.399-0.586-4.185-2.396-6.008c-1.167-1.785-2.365-3.57-2.365-5.972
		c0-4.808,4.175-9.03,8.972-9.03h10.75c16.781,0,29.926-13.179,29.926-30.004C111.857,25.597,87.926,4.001,58.001,4.001z M25.097,58
		c-4.796,0-8.97-4.186-8.97-8.994c0-4.808,4.174-8.993,8.97-8.993c4.788,0,8.97,4.186,8.97,8.993C34.067,53.814,29.885,58,25.097,58
		z M43.038,34.005c-4.789,0-8.971-4.193-8.971-8.994c0-4.808,4.182-8.993,8.971-8.993c4.795,0,8.97,4.186,8.97,8.993
		C52.008,29.812,47.833,34.005,43.038,34.005z M72.964,34.005c-4.789,0-8.971-4.193-8.971-8.994c0-4.808,4.182-8.993,8.971-8.993
		c4.795,0,8.97,4.186,8.97,8.993C81.934,29.812,77.759,34.005,72.964,34.005z M90.941,58c-4.797,0-9.008-4.186-9.008-8.994
		c0-4.808,4.211-8.993,9.008-8.993c4.758,0,8.97,4.186,8.97,8.993C99.911,53.814,95.699,58,90.941,58z"/>
</g>
</svg>
