<?xml version="1.0" encoding="utf-8"?>
<!-- Generator: Adobe Illustrator 15.0.0, SVG Export Plug-In . SVG Version: 6.00 Build 0)  -->
<!DOCTYPE svg PUBLIC "-//W3C//DTD SVG 1.1//EN" "http://www.w3.org/Graphics/SVG/1.1/DTD/svg11.dtd">
<svg version="1.1" id="Camada_1" xmlns="http://www.w3.org/2000/svg" xmlns:xlink="http://www.w3.org/1999/xlink" x="0px" y="0px"
	 width="116px" height="116px" viewBox="0 0 116 116" enable-background="new 0 0 116 116" xml:space="preserve">
<title>Ciencias Agrarias</title>
<desc>Created with Sketch.</desc>
<g>
	<path fill="#FFFFFF" d="M111.229,23.054l-26.57-3.366c-0.061-0.007-0.124-0.007-0.184,0l-26.479,3.354l-26.474-3.354
		c-0.044-0.005-0.09-0.006-0.134-0.003c-0.018,0-0.035,0.002-0.052,0.004L4.772,23.054c-0.36,0.045-0.631,0.352-0.631,0.715v71.826
		c0,0.207,0.089,0.404,0.245,0.543c0.155,0.135,0.36,0.201,0.567,0.174l26.477-3.354l26.475,3.354c0.061,0.006,0.123,0.006,0.183,0
		l26.479-3.355l26.479,3.355c0.03,0.004,0.062,0.006,0.091,0.006c0.175,0,0.344-0.064,0.478-0.18
		c0.155-0.139,0.243-0.336,0.243-0.543V23.769C111.858,23.405,111.589,23.099,111.229,23.054z M31.188,57.313
		c-1.081,0.164-0.82-1.04-0.234-2.081c0.073-0.128,0.152-0.251,0.234-0.368V57.313z M31.188,32.644
		c-0.197,0.068-0.394,0.138-0.591,0.215c-1.544,0.606-3.815,2.844-5.392,2.576c-0.602-0.101-2.198-0.189-2.556,0.532
		c-0.284,0.576,0.831,0.938,1.166,1.137c1.172,0.695-0.188,0.526-0.73,0.458c-0.903-0.114-1.805-0.254-2.703-0.403
		c-1.822-0.304-3.368-1.022-5.224-0.698c-0.411,0.071-0.44,0.389-0.229,0.543c-0.901,0.075-1.745,0.375-2.451,1.12
		c-0.806,0.85-0.376,3.762,0.096,4.65c0.425,0.8,1.618,0.771,2.356,0.709c0.609-0.051,1.229-0.279,1.813-0.44
		c2.114-0.583,3.789,1.252,5.081,2.553c1.142,1.15,1.133,2.311,1.267,3.816c0.158,1.773,0.966,2.949,2.233,4.131
		c1.304,1.214,2.225,2.705,3.371,4.057c0.717,0.845,1.585,1.442,2.492,1.997v28.657L9.671,91.474V26.827l21.517-2.551V32.644z
		 M16.271,37.029c-0.033-0.003-0.068-0.006-0.103-0.01c0.023,0.001,0.046,0.001,0.069,0.001L16.271,37.029z M31.673,59.889
		c0.371,0.221,0.745,0.44,1.115,0.674c0.016,0.549,0.567,0.812,1.077,0.904c0.018,0.004,0.037,0.004,0.056,0.007
		c0.951,1.151,0.335,2.402,0.081,3.919c-0.245,1.46,0.889,2.538,1.657,3.661c1.253,1.828,1.828,3.273,1.539,5.537
		c-0.216,1.701-0.688,3.373-0.959,5.068c-0.428,2.672-0.27,5.49,2.191,7.072c0.221,0.143,0.836,0.047,0.829-0.301
		c-0.031-1.857-0.053-2.975,0.954-4.617c1.292-2.105,2.067-4.512,3.355-6.65c1.143-1.898,2.166-3.816,2.952-5.893
		c0.297-0.783,0.722-1.82,0.245-2.602c-0.593-0.973-2.658-1.599-3.488-2.389c-1.261-1.203-2.179-2.786-3.604-3.807
		c-0.744-0.533-1.968-0.528-2.809-0.296c-0.618,0.171-1.766,0.628-2.455,0.563c-0.036-0.035-0.074-0.074-0.107-0.103
		c-0.146-0.122-0.296-0.233-0.446-0.346c-0.031-0.209,0.019-0.498,0.189-0.899c0.072-0.17-0.018-0.286-0.173-0.355
		c-0.822-0.414-1.225-1.032-1.208-1.854c-0.04-0.28-0.503-0.218-0.667-0.141c-0.117,0.054-0.225,0.099-0.326,0.137v-2.895
		c0.796-0.76,1.77-0.886,2.308,0.639c0.135,0.382,0.894,0.208,0.935-0.163c0.293-2.69,1.176-5.393,3.687-6.765
		c1.113-0.607,2.199-0.911,2.741-2.08c0.174-0.373,0.069-0.57-0.095-0.884c-0.489-0.944-1.181-1.494-1.398-2.653
		c-0.13-0.691-0.185-2.022-1.124-2.022c-0.749,0-1.969-0.262-2.662,0.066c-1.459,0.693-0.171,3.798-2.57,2.522
		c-1.99-1.058-0.563-3.313,1.263-3.487c0.913-0.086,1.708,0.358,2.571,0.529c0.976,0.194,1.493-0.693,1.766-1.445
		c0.062-0.171-0.01-0.287-0.173-0.355c-0.964-0.401-1.893-0.9-2.783-1.445c-0.599-0.266-0.562-0.74,0.112-1.423
		c0.342,0.048,0.679,0.118,1.012,0.209c0.824,0.208,1.463,0.559,2.093,1.155c1.883,1.78,2.414,4.253,5.194,4.94
		c0.228,0.056,0.732-0.021,0.739-0.345c0.057-2.387,2.747-1.978,4.025-3.289c1.271-1.305,1.142-3.902,2.856-4.719
		c0.226-0.107,0.424-0.477,0.067-0.572c-0.753-0.2-1.37-0.227-2.146-0.159c-2.02,0.175-3.538,0.503-5.635-0.056
		c-2.521-0.674-5.304-0.587-7.902-0.643c-1.686-0.036-3.298,0.164-4.881,0.647V24.28l26.083,3.301v11.277
		c-0.706,0.585-1.369,1.306-1.389,2.011c-0.019,0.656,0.116,0.922,0.576,1.393c0.504,0.513-0.209,1.262-0.755,1.805
		c-0.71-0.647-0.984-1.401-1.095-2.406c-0.045-0.406-0.976-0.182-0.929,0.249c0.004,0.029,0.009,0.055,0.013,0.085
		c-0.171-0.054-0.399-0.045-0.554,0.062c-0.473,0.33-1.647,1.207-1.139,1.955c0.66,0.973,1.014,2.021,1.656,3.005
		c-1.419,0.746-2.839,3.141-0.776,3.815c0.127,0.041,0.252,0.07,0.375,0.087c-0.564,0.334-1.062,0.805-1.45,1.27
		c-1.785,2.136-1.531,6.052-1.115,8.591c0.208,1.265,0.713,2.136,1.961,2.523c0.423,0.133,1.047,0.037,1.47-0.04
		c1.771-0.324,2.258,0.267,2.728,1.79c0.212,0.684,0.342,1.368,0.423,2.056V91.55l-26.083-3.299V59.889z M57.756,51.719
		c-0.676-0.496-1.237-1.158-2.205-1.258c-0.064-0.006-0.126,0.001-0.189-0.001c0.181-0.14,0.347-0.307,0.494-0.494
		c0.374-0.473,0.57-1.103,0.832-1.639c0.396-0.812,0.961,2.275,0.981,2.362c0.015,0.058,0.047,0.099,0.087,0.129V51.719z
		 M58.237,50.858c0.037-0.01,0.07-0.021,0.098-0.034c1.352-0.621,3.246-0.715,4.664-0.353c1.024,0.282,1.081,0.859,0.168,1.731
		c-0.525,0.173-1.117,0.189-1.664,0.223c-0.893,0.055-1.839-0.012-2.714-0.206c-0.2-0.044-0.38-0.115-0.552-0.201V50.858z
		 M58.237,76.435c0.015,0.055,0.023,0.105,0.038,0.16c0.5,1.838,1.919,2.783,3.572,1.697c1.952-1.283,3.016-4.297,3.671-6.402
		c0.704-2.26,0.76-4.594,1.645-6.835c0.556-1.408,1.645-2.683,1.526-4.266c-0.009-0.132-0.199-0.187-0.299-0.2
		c-2.424-0.326,0.854-1.509,1.359-1.798c0.45-0.258,1.121-0.76,1.163-1.337c0.058-0.775-0.24-1.363-0.857-1.817
		c-0.858-0.633-2.49-0.435-2.093-1.734c1.912,1.364,4.228,1.363,5.275,4.027c0.7,1.775,0.866,3.874,2.617,4.969
		c0.22,0.138,0.829,0.043,0.829-0.299c-0.002-1.797,0.33-3.772,1.415-5.253c0.619-0.847,1.13,2.123,1.156,2.28
		c0.191,1.146,0.091,2.364,0.17,3.526c0.175,2.599,2.443,4.533,4.899,5.113v4.314c-0.97,1.154-0.667,3.172,0,4.598v11.086
		l-26.088,3.297V76.435z M84.325,63.194c-0.761,0.792-1.913,2.121-0.939,2.614c0.259,0.131,0.595,0.178,0.939,0.154v1.108
		c-1.794-1.107-2.777-3.088-2.511-5.323c1.771-0.023,1.818-1.766,1.975-3.445c0.052-0.555,0.261-0.945,0.536-1.26V63.194z
		 M84.809,78.017c0.772,1.041,2.745,0.592,3.774,0.316c2.385-0.639,2.335,3.197,4.584,3.15c1.242-0.025,1.577-1.516,1.734-2.508
		c0.411-2.58,0.341-5.971-1.476-8.07c-0.631-0.727-1.843-0.441-2.201-1.41c-0.141-0.381-0.538-0.492-0.904-0.438
		c-0.637,0.096-1.222,0.18-1.763,0.574c-0.833,0.607-1.397,2.596-2.546,2.467c-0.506-0.057-0.908,0.008-1.203,0.213v-3.947
		c0.346,0.055,0.691,0.086,1.033,0.086c0.292,0,0.809-0.512,0.316-0.627c-0.484-0.113-0.934-0.279-1.35-0.484V65.88
		c0.435-0.117,0.828-0.342,1.031-0.665c0.556-0.884,0.25-2.095-0.049-3.016c-0.119-0.365-1.044-0.105-0.929,0.249
		c0.018,0.057,0.033,0.114,0.051,0.17c-0.042,0.021-0.077,0.047-0.104,0.076v-6.102c0.625-0.489,1.338-0.854,1.548-1.677
		c0.179-0.697,0.156-1.082-0.057-1.791c-0.213-0.704-0.979-2.56,0.192-2.003c1.928,0.914,2.428-0.893,3.177-2.11
		c0.754-1.227,1.507-2.432,1.931-3.817c0.13-0.425,0.094-0.811-0.015-1.226c-0.328-1.25,2.501-1.552,3.146-0.414
		c0.918,1.623,2.456,0.063,3.354-0.859c1.292-1.331,2.873-1.864,4.63-2.286c0.536-0.128,1.188-0.364,1.228-0.982
		c0.128-1.986-6.241-2.318-7.345-2.46c-2.54-0.328-5.086-0.542-7.636-0.752c-1.403-0.116-2.785-0.485-4.152-0.921V24.292
		l22.156,3.219V90.8l-22.156-2.559V78.017z M84.325,35.135c-1.221-0.401-2.43-0.836-3.633-1.177
		c-0.198-0.056-0.892,0.078-0.736,0.427c0.088,0.196,0.175,0.391,0.264,0.586c-2.376,0.316-4.924,0.419-6.948,1.773
		c-2.011,1.344-2.729-1.812-4.591,0.213c-0.147,0.161-0.081,0.355,0.115,0.427c0.408,0.168,0.806,0.355,1.2,0.552
		c-3.676,0.527-7.618-2.267-10.971-0.007c-0.214,0.145-0.492,0.333-0.788,0.551V27.587l26.088-3.306V35.135z"/>
	<path fill="#FFFFFF" d="M52.42,39.19c-0.005-1.231-2.372-0.73-3.517-0.334c-0.146-0.034-0.352-0.004-0.519,0.074
		c-0.005,0-0.009,0.001-0.014,0.003c-0.215,0.034-0.443,0.117-0.521,0.337c-0.256,0.715,2.035,1.267,2.509,1.336
		C51.235,40.733,52.426,40.206,52.42,39.19z"/>
	<path fill="#FFFFFF" d="M100.369,79.132c0-0.023-0.014-0.041-0.033-0.057c-0.03-0.139-0.064-0.277-0.107-0.414
		c-0.084-0.273-1.009-0.012-0.928,0.248c0.058,0.189,0.101,0.375,0.133,0.557c-0.026,0.387-0.183,1.168-0.448,1.869
		c-0.025,0.029-0.045,0.061-0.072,0.088c-0.558,0.586-1.377,0.936-2.036,1.395c-0.097,0.068-0.153,0.195-0.011,0.248
		c1.358,0.498,2.36-0.494,2.937-1.717c0.024-0.023,0.052-0.043,0.075-0.066c0.557-0.584,0.621-1.332,0.485-2.066
		C100.365,79.188,100.369,79.157,100.369,79.132z"/>
	<path fill="#FFFFFF" d="M86.913,58.437c-0.086-0.266-0.65-0.171-0.858,0.039c-0.217,0.067-0.4,0.207-0.352,0.367
		c0.432,1.413,0.975,2.778,1.683,4.077c0.176,0.321,0.942,0.12,0.928-0.249C88.259,61.128,87.374,59.867,86.913,58.437z"/>
	<path fill="#FFFFFF" d="M92.899,66.821c-0.787-0.303-1.363-1.121-2.081-1.567c-0.67-0.415-1.46-0.375-2.197-0.209
		c-0.57,0.129-0.425,0.645,0.139,0.517c0.134-0.03,0.259-0.041,0.381-0.045c0.009,0.009,0.015,0.017,0.025,0.024
		c1.519,1.125,2.659,2.673,4.205,3.763c0.242,0.17,0.743-0.023,0.832-0.289c0.175-0.518,0.465-1.199,0.106-1.701
		C94.045,66.94,93.283,66.97,92.899,66.821z"/>
	<path fill="#FFFFFF" d="M89.311,53.497c0.813-0.794,2.011-0.935,2.757-1.83c0.907-1.089,0.339-2.602,0.884-3.813
		c0.056-0.126-0.325-0.125-0.617-0.037c-0.137,0.02-0.264,0.05-0.319,0.083c-1.176,0.709-0.898,1.834-1.379,2.966
		c-0.487,1.151-1.974,1.36-2.208,2.73C88.374,53.908,89.205,53.6,89.311,53.497z"/>
</g>
</svg>
