<?xml version="1.0" encoding="utf-8"?>
<!-- Generator: Adobe Illustrator 15.0.0, SVG Export Plug-In . SVG Version: 6.00 Build 0)  -->
<!DOCTYPE svg PUBLIC "-//W3C//DTD SVG 1.1//EN" "http://www.w3.org/Graphics/SVG/1.1/DTD/svg11.dtd">
<svg version="1.1" id="Camada_1" xmlns="http://www.w3.org/2000/svg" xmlns:xlink="http://www.w3.org/1999/xlink" x="0px" y="0px"
	 width="116px" height="116px" viewBox="0 0 116 116" enable-background="new 0 0 116 116" xml:space="preserve">
<title>Ciencias Agrarias</title>
<desc>Created with Sketch.</desc>
<g>
	<path fill="#FFFFFF" d="M94.676,52.249c0.306,0,0.552-0.248,0.552-0.552v-18.58c0-0.305-0.246-0.553-0.552-0.553H71.408
		c-0.306,0-0.553,0.248-0.553,0.553v18.58c0,0.304,0.247,0.552,0.553,0.552H94.676z M72.435,34.068h20.663
		c0.305,0,0.552,0.246,0.552,0.552v16.126H72.986c-0.305,0-0.552-0.247-0.552-0.552V34.068z"/>
	<circle fill="#FFFFFF" cx="89.924" cy="37.829" r="2.235"/>
	<polygon fill="#FFFFFF" points="87.531,42.453 84.288,44.533 78.434,37.176 73.925,49.279 92.159,49.279 	"/>
	<path fill="#FFFFFF" d="M19.438,34.317h9.294c0.585,0,1.058-0.362,1.058-0.809S29.316,32.7,28.731,32.7h-9.294
		c-0.585,0-1.058,0.362-1.058,0.809S18.853,34.317,19.438,34.317z"/>
	<path fill="#FFFFFF" d="M19.438,38.909h9.294c0.585,0,1.058-0.361,1.058-0.808s-0.473-0.808-1.058-0.808h-9.294
		c-0.585,0-1.058,0.361-1.058,0.808S18.853,38.909,19.438,38.909z"/>
	<path fill="#FFFFFF" d="M19.438,43.503h9.294c0.585,0,1.058-0.362,1.058-0.808c0-0.447-0.473-0.81-1.058-0.81h-9.294
		c-0.585,0-1.058,0.362-1.058,0.81C18.379,43.141,18.853,43.503,19.438,43.503z"/>
	<path fill="#FFFFFF" d="M19.438,48.097h9.294c0.585,0,1.058-0.362,1.058-0.81s-0.473-0.809-1.058-0.809h-9.294
		c-0.585,0-1.058,0.361-1.058,0.809S18.853,48.097,19.438,48.097z"/>
	<path fill="#FFFFFF" d="M19.438,52.689h9.294c0.585,0,1.058-0.361,1.058-0.809s-0.473-0.809-1.058-0.809h-9.294
		c-0.585,0-1.058,0.361-1.058,0.809S18.853,52.689,19.438,52.689z"/>
	<path fill="#FFFFFF" d="M34.664,32.565c-0.584,0-1.058,0.361-1.058,0.809c0,0.446,0.474,0.809,1.058,0.809h30.67
		c0.585,0,1.058-0.362,1.058-0.809c0-0.447-0.473-0.809-1.058-0.809H34.664z"/>
	<path fill="#FFFFFF" d="M34.664,38.682h28.045c0.585,0,1.058-0.36,1.058-0.809c0-0.446-0.473-0.808-1.058-0.808H34.664
		c-0.584,0-1.058,0.361-1.058,0.808C33.606,38.321,34.08,38.682,34.664,38.682z"/>
	<path fill="#FFFFFF" d="M34.664,43.182h28.92c0.585,0,1.058-0.362,1.058-0.808c0-0.447-0.473-0.81-1.058-0.81h-28.92
		c-0.584,0-1.058,0.362-1.058,0.81C33.606,42.819,34.08,43.182,34.664,43.182z"/>
	<path fill="#FFFFFF" d="M34.664,47.682h26.295c0.585,0,1.058-0.361,1.058-0.809c0-0.446-0.473-0.809-1.058-0.809H34.664
		c-0.584,0-1.058,0.362-1.058,0.809C33.606,47.32,34.08,47.682,34.664,47.682z"/>
	<path fill="#FFFFFF" d="M34.664,52.182h30.67c0.585,0,1.058-0.361,1.058-0.809c0-0.446-0.473-0.808-1.058-0.808h-30.67
		c-0.584,0-1.058,0.361-1.058,0.808C33.606,51.82,34.08,52.182,34.664,52.182z"/>
	<path fill="#FFFFFF" d="M49.356,55.872c0,0.448,0.474,0.809,1.059,0.809h40.386c0.585,0,1.058-0.36,1.058-0.809
		c0-0.446-0.473-0.808-1.058-0.808H50.415C49.83,55.064,49.356,55.426,49.356,55.872z"/>
	<path fill="#FFFFFF" d="M50.415,59.563c-0.585,0-1.059,0.362-1.059,0.81c0,0.446,0.474,0.809,1.059,0.809h44.761
		c0.585,0,1.058-0.362,1.058-0.809c0-0.447-0.473-0.81-1.058-0.81H50.415z"/>
	<path fill="#FFFFFF" d="M87.301,64.063H50.415c-0.585,0-1.059,0.362-1.059,0.809s0.474,0.809,1.059,0.809h36.886
		c0.585,0,1.058-0.362,1.058-0.809S87.886,64.063,87.301,64.063z"/>
	<path fill="#FFFFFF" d="M102.045,11.655h-88.09c-3.071,0-5.561,2.489-5.561,5.561v64.243c0,3.073,2.49,5.563,5.561,5.563h36.803
		c0.426,0.774,0.67,1.663,0.67,2.607v6.835c0,2.997-2.43,5.428-5.428,5.428h-3.763v2.452h31.525v-2.452H70
		c-2.998,0-5.428-2.431-5.428-5.428V89.63c0-0.944,0.246-1.833,0.671-2.607h36.802c3.073,0,5.562-2.49,5.562-5.563V17.216
		C107.606,14.145,105.118,11.655,102.045,11.655z M58.001,81.593c-1.887,0-3.416-1.529-3.416-3.416s1.529-3.415,3.416-3.415
		c1.885,0,3.414,1.528,3.414,3.415S59.886,81.593,58.001,81.593z M100.473,71.414H15.529V18.19h84.944V71.414z"/>
	<path fill="#FFFFFF" d="M21.687,28.543c0.933,1.592,4.069,1.517,7.26-0.074c3.557-0.239,6.304-1.759,6.304-3.604
		c0-0.629-0.319-1.22-0.88-1.735c0.224-0.729,0.199-1.399-0.118-1.942c-0.932-1.591-4.068-1.516-7.26,0.074
		c-3.557,0.239-6.303,1.76-6.303,3.604c0,0.629,0.319,1.22,0.879,1.736C21.346,27.33,21.369,28.001,21.687,28.543z"/>
	<ellipse fill="#FFFFFF" cx="42.579" cy="27.138" rx="3.81" ry="0.966"/>
	<ellipse fill="#FFFFFF" cx="52.347" cy="27.138" rx="3.811" ry="0.966"/>
	<ellipse fill="#FFFFFF" cx="62.114" cy="27.138" rx="3.811" ry="0.966"/>
	<ellipse fill="#FFFFFF" cx="71.882" cy="27.138" rx="3.811" ry="0.966"/>
	<ellipse fill="#FFFFFF" cx="81.65" cy="27.138" rx="3.81" ry="0.966"/>
	<ellipse fill="#FFFFFF" cx="91.418" cy="27.138" rx="3.81" ry="0.966"/>
	<path fill="#FFFFFF" d="M40.741,54.091v5.247c0,0.091,0.054,0.171,0.138,0.205c0.027,0.012,0.056,0.018,0.085,0.018
		c0.058,0,0.114-0.024,0.158-0.065l3.866-3.896c0.045-0.045,0.066-0.105,0.063-0.169c-0.003-0.063-0.033-0.121-0.082-0.161
		c-1.15-0.916-2.536-1.399-4.005-1.399C40.84,53.869,40.741,53.969,40.741,54.091z M41.185,54.317
		c1.203,0.042,2.34,0.438,3.311,1.148L41.185,58.8V54.317z"/>
	<path fill="#FFFFFF" d="M45.808,56.178c-0.063-0.005-0.125,0.021-0.168,0.065l-3.881,3.908c-0.063,0.064-0.083,0.159-0.047,0.242
		c0.034,0.083,0.115,0.138,0.204,0.138h5.265c0.122,0,0.222-0.101,0.222-0.224c0-1.47-0.509-2.906-1.433-4.048
		C45.931,56.211,45.87,56.18,45.808,56.178z M42.449,60.087l3.326-3.353c0.722,0.97,1.134,2.144,1.179,3.353H42.449z"/>
	<path fill="#FFFFFF" d="M39.823,54.997c-3.433,0-6.217,2.784-6.217,6.217c0,0.441,0.049,0.87,0.135,1.284v0.001
		c0.002,0.01,0.004,0.017,0.006,0.026c0.012,0.057,0.028,0.111,0.041,0.168c0.02,0.074,0.035,0.149,0.057,0.223
		c0.004,0.014,0.008,0.026,0.012,0.04l0.001-0.003c0.09,0.302,0.203,0.593,0.335,0.873l-0.008,0.007
		c0.987,2.125,3.142,3.598,5.639,3.598c3.434,0,6.218-2.782,6.218-6.217h-6.218V54.997z"/>
</g>
</svg>
