<?xml version="1.0" encoding="utf-8"?>
<!-- Generator: Adobe Illustrator 15.0.0, SVG Export Plug-In . SVG Version: 6.00 Build 0)  -->
<!DOCTYPE svg PUBLIC "-//W3C//DTD SVG 1.1//EN" "http://www.w3.org/Graphics/SVG/1.1/DTD/svg11.dtd">
<svg version="1.1" id="Camada_1" xmlns="http://www.w3.org/2000/svg" xmlns:xlink="http://www.w3.org/1999/xlink" x="0px" y="0px"
	 width="116px" height="116px" viewBox="0 0 116 116" enable-background="new 0 0 116 116" xml:space="preserve">
<title>Ciencias Agrarias</title>
<desc>Created with Sketch.</desc>
<g>
	<path fill="#FFFFFF" d="M101.134,35.153h6.473V21.878c0-4.322-3.504-7.825-7.826-7.825H16.219c-4.322,0-7.825,3.503-7.825,7.825
		v13.275h6.473c2.248,0,4.069,1.821,4.069,4.067v37.557c0,2.247-1.821,4.069-4.069,4.069H8.394v13.275
		c0,4.321,3.503,7.825,7.825,7.825H99.78c4.322,0,7.826-3.504,7.826-7.825V80.847h-6.473c-2.247,0-4.068-1.822-4.068-4.069V39.221
		C97.065,36.975,98.887,35.153,101.134,35.153z M72.145,20.68h7.192v7.192h-7.192V20.68z M54.404,20.68h7.191v7.192h-7.191V20.68z
		 M36.663,20.68h7.192v7.192h-7.192V20.68z M26.114,95.319h-7.192v-7.192h7.192V95.319z M26.114,27.872h-7.192V20.68h7.192V27.872z
		 M43.855,95.319h-7.192v-7.192h7.192V95.319z M61.596,95.319h-7.191v-7.192h7.191V95.319z M79.337,95.319h-7.192v-7.192h7.192
		V95.319z M86.183,76.777c0,2.247-1.822,4.069-4.068,4.069H33.886c-2.247,0-4.067-1.822-4.067-4.069V39.221
		c0-2.246,1.821-4.067,4.067-4.067h48.228c2.246,0,4.068,1.821,4.068,4.067V76.777z M97.079,88.127v7.192h-7.193v-7.192H97.079z
		 M89.886,27.872V20.68h7.193v7.192H89.886z"/>
	<path fill="#FFFFFF" d="M73.734,57.991c-0.008-0.779-0.442-1.457-1.082-1.81l0,0l-0.009-0.004v-0.001L45.521,42.353l0.004,0.004
		c-0.333-0.229-0.738-0.364-1.174-0.364c-1.151,0-2.084,0.933-2.084,2.083v27.846c0,1.15,0.933,2.085,2.084,2.085
		c0.436,0,0.841-0.136,1.174-0.364l-0.004,0.003l27.123-13.822l0,0l0.009-0.006l0,0c0.64-0.352,1.074-1.03,1.082-1.81l0,0
		c0-0.002,0-0.005,0-0.009C73.734,57.997,73.734,57.994,73.734,57.991L73.734,57.991z M45.77,73.446
		c0.006-0.007,0.012-0.013,0.019-0.018l0.001,0.002L45.77,73.446z M45.788,42.571c-0.006-0.005-0.013-0.01-0.019-0.017
		L45.788,42.571L45.788,42.571z"/>
</g>
</svg>
