<?xml version="1.0" encoding="utf-8"?>
<!-- Generator: Adobe Illustrator 15.0.0, SVG Export Plug-In . SVG Version: 6.00 Build 0)  -->
<!DOCTYPE svg PUBLIC "-//W3C//DTD SVG 1.1//EN" "http://www.w3.org/Graphics/SVG/1.1/DTD/svg11.dtd" />
<svg version="1.1" id="Camada_1" xmlns:x="&ns_extend;" xmlns:i="&ns_ai;" xmlns:graph="&ns_graphs;"
	 xmlns="http://www.w3.org/2000/svg" xmlns:xlink="http://www.w3.org/1999/xlink" x="0px" y="0px" width="510px" height="120px"
	 viewBox="0 0 510 120" enable-background="new 0 0 510 120" xml:space="preserve" class="svg-capes-logo-horizontal">
<metadata>
	<sfw  xmlns="&ns_sfw;">
		<slices></slices>
		<sliceSourceBounds  x="173.209" y="247.641" width="495.473" height="100" bottomLeftOrigin="true"></sliceSourceBounds>
	</sfw>
</metadata>
<g>
	<g>
		<path fill="#8DC63F" d="M28.771,31.934c-4.516,7.999-6.653,16.001-6.417,24.001c4.041-2.61,8.397-4.114,13.07-4.516
			c-10.615,5.078-15.683,15.123-15.206,30.127c0.234,8.971,2.371,16.029,6.413,21.189c2.538,3.258,5.468,5.676,8.793,7.264
			c-5.467-0.395-10.395-2.318-14.795-5.768c-4.394-3.453-7.663-7.795-9.801-13.029c-2.376-6.109-3.564-12.814-3.564-20.109
			c0-5.072,0.594-10.469,1.781-16.18c2.534-12.288,7.448-22.125,14.736-29.504c7.287-7.374,15.723-10.86,25.308-10.47
			C40.772,17,34,22.662,28.771,31.934"/>
		<path fill="#00AEEF" d="M77.901,10.017L82.258,10l-0.063,8.902H55.925l-2.089,17.656c4.67-0.375,9.274,0.069,13.812,1.347
			c9.277,2.62,15.488,8.584,18.628,17.876c1.322,3.977,1.982,8.396,1.982,13.275c-0.484,4.795-1.498,8.926-3.031,12.369
			c-3.702,8.396-9.558,12.783-17.58,13.156C75.948,89.937,80.1,82.74,80.1,72.988c0-3.373-0.49-6.559-1.467-9.559
			c-4.601-10.795-12.696-16.191-24.277-16.191c-2.718,0-5.58,0.336-8.578,1.012l7.639-38.232H77.901z"/>
		<path fill="#00A651" d="M76.743,104.33v1.572c-0.94,0.545-1.823,0.818-2.648,0.818c-0.888,0-1.414-0.332-1.577-1.012
			c-0.987,0.68-1.974,1.012-2.96,1.012c-0.699,0-1.293-0.223-1.78-0.662c-0.49-0.441-0.735-0.953-0.735-1.535
			c0-0.787,0.25-1.42,0.757-1.895c0.504-0.484,2.033-1.102,4.584-1.859c0.062-1-0.46-1.502-1.562-1.502
			c-1.2,0-2.303,0.502-3.314,1.502v-2.305c1.18-0.727,2.481-1.09,3.895-1.09c2.539,0,3.81,0.91,3.81,2.732v4.1
			c0,0.42,0.151,0.631,0.462,0.631C75.913,104.837,76.265,104.666,76.743,104.33 M72.384,104.369v-2.178
			c-0.946,0.33-1.597,0.625-1.946,0.891c-0.354,0.266-0.529,0.6-0.529,1.012c0,0.258,0.089,0.486,0.265,0.67
			c0.179,0.186,0.396,0.281,0.648,0.281C71.355,105.044,71.875,104.82,72.384,104.369"/>
		<path fill="#00A651" d="M80.741,97.564v1.273c0.833-0.98,1.802-1.467,2.923-1.467c0.932,0,1.71,0.303,2.336,0.898
			c0.623,0.598,0.937,1.453,0.937,2.563v5.715H84.11v-5.479c0-1.199-0.465-1.801-1.402-1.801c-0.663,0-1.321,0.492-1.968,1.484
			v5.795h-2.829v-8.982H80.741z"/>
		<path fill="#00A651" d="M93.915,97.375c1.409,0,2.604,0.414,3.586,1.24c0.979,0.824,1.47,1.979,1.47,3.445
			c0,1.48-0.496,2.629-1.496,3.441c-0.994,0.811-2.183,1.219-3.561,1.219c-1.491,0-2.71-0.434-3.657-1.303
			c-0.951-0.865-1.427-1.99-1.427-3.377c0-1.41,0.485-2.545,1.455-3.387C91.249,97.798,92.463,97.375,93.915,97.375 M93.915,105.044
			c1.35,0,2.03-1.016,2.03-3.059c0-1.951-0.68-2.93-2.03-2.93c-0.648,0-1.154,0.26-1.515,0.773
			c-0.369,0.516-0.549,1.256-0.549,2.211C91.85,104.042,92.537,105.044,93.915,105.044"/>
		<path fill="#00A651" d="M107.044,98.041v2.006c-1.081-0.656-2.079-0.992-3.001-0.992c-0.678,0-1.017,0.234-1.017,0.695
			c0,0.125,0.071,0.246,0.213,0.359c0.144,0.119,0.693,0.367,1.644,0.746c0.949,0.383,1.622,0.813,2.018,1.309
			c0.394,0.496,0.591,1.041,0.591,1.631c0,0.934-0.32,1.654-0.955,2.162c-0.633,0.508-1.541,0.764-2.71,0.764
			c-1.208,0-2.279-0.219-3.221-0.658v-1.99c1.159,0.51,2.124,0.768,2.905,0.768c0.915,0,1.37-0.227,1.37-0.672
			c0-0.168-0.087-0.328-0.254-0.484c-0.166-0.15-0.732-0.41-1.699-0.789c-0.965-0.377-1.619-0.791-1.978-1.242
			c-0.354-0.453-0.533-0.953-0.533-1.508c0-0.816,0.342-1.484,1.024-2c0.68-0.514,1.583-0.773,2.698-0.773
			C105.211,97.371,106.178,97.593,107.044,98.041"/>
		<path fill="#FBB040" d="M64.476,100.318c-5.105,5.822-11.466,9.051-19.068,9.682c10.374-4.988,15.324-14.857,14.847-29.586
			c-0.472-14.736-5.422-24.36-14.847-28.873c7.205,0.553,13.347,3.527,18.417,8.907c5.067,5.39,7.722,11.849,7.958,19.372
			C72.021,87.666,69.586,94.488,64.476,100.318"/>
		<path fill-rule="evenodd" clip-rule="evenodd" fill="#0095DA" d="M257.627,58.224c-7.729,3.705-12.462,5.912-19.476,5.912
			c-11.201,0-19.165-6.858-19.165-16.479c0-9.543,8.041-16.325,19.479-16.325c6.626,0,12.619,2.209,18.532,5.522V24.869
			c-5.286-3.155-11.988-4.732-19.477-4.732c-20.584,0-32.336,13.405-32.336,27.756c0,13.881,10.409,27.441,31.308,27.441
			c7.961,0,13.645-1.492,21.135-5.363V58.224z"/>
		<path fill-rule="evenodd" clip-rule="evenodd" fill="#0095DA" d="M309.343,20.914h-15.535l-21.684,53.777h14.193l4.022-10.643
			h24.049l4.414,10.643h14.435L309.343,20.914z M310.448,54.663H293.89l7.881-20.894L310.448,54.663z"/>
		<path fill-rule="evenodd" clip-rule="evenodd" fill="#0095DA" d="M345.648,20.917v53.774h13.405V53.085h10.648
			c12.38,0,17.742-8.673,17.742-16.243c0-7.335-5.52-15.926-17.824-15.926H345.648z M359.054,30.768h4.733
			c7.253,0,9.855,1.658,9.855,6.231c0,4.022-2.206,6.23-8.358,6.23h-6.23V30.768z"/>
		<polygon fill-rule="evenodd" clip-rule="evenodd" fill="#0095DA" points="440.436,64.837 414.179,64.837 414.179,51.905 
			438.701,51.905 438.701,42.051 414.179,42.051 414.179,30.768 439.885,30.768 439.885,20.917 400.773,20.917 400.773,74.691 
			440.436,74.691 		"/>
		<path fill-rule="evenodd" clip-rule="evenodd" fill="#0095DA" d="M500.293,24.381c-6.785-2.912-12.223-4.178-18.216-4.178
			c-12.459,0-20.505,6.152-20.505,15.456c0,19.316,27.362,16.084,27.362,24.919c0,3.153-2.763,4.966-7.886,4.966
			c-5.916,0-10.648-1.813-18.375-6.938v11.589c5.365,2.762,10.016,5.209,19.403,5.209c11.986,0,20.659-5.994,20.659-16.325
			c0-18.764-27.367-16.481-27.367-24.603c0-2.683,3.081-4.416,7.887-4.416c4.573,0,9.224,1.343,17.037,4.81V24.381z"/>
		<path fill-rule="evenodd" clip-rule="evenodd" fill="#0095DA" d="M191.405,58.234L191.405,58.234l0.005-0.005
			c0.282-0.492,0.572-1.064,0.85-1.717c0.28-0.645,0.529-1.345,0.715-2.079c1.009-3.817,0.695-8.982-4.377-14.123l-0.015-0.017
			c-0.963-0.974-2.001-1.872-3.107-2.692c-1.099-0.81-2.279-1.556-3.525-2.229c-6.425-3.478-14.425-4.96-22.774-4.811h-0.034
			c-0.15,0.01-0.551,0.029-1.167,0.063c-0.553,0.031-1.311,0.082-2.224,0.143c-2.236,0.164-5.206,0.396-7.398,0.608
			c3.67,0.683,7.075,1.429,10.407,2.407c4.521,1.333,8.908,3.107,13.669,5.746c0.695,0.387,1.359,0.773,1.992,1.157
			c7.669,4.675,11.508,9.651,13.092,14.135c0.995,2.815,1.116,5.438,0.734,7.684c0.082-0.092,0.174-0.189,0.261-0.287
			c1.048-1.159,2.019-2.48,2.902-3.984H191.405z M123.077,78.414l0.034,0.01c1.19,0.244,2.449,0.445,3.767,0.619
			c1.342,0.168,2.719,0.299,4.126,0.387c7.394,0.459,16.214-0.168,25.896-2.16l0.005-0.006c0.937-0.191,1.815-0.379,2.646-0.576
			c0.804-0.195,1.676-0.412,2.603-0.66c0.171-0.047,0.35-0.088,0.521-0.143c-1.449,0.094-2.83,0.156-4.129,0.195h-0.021
			c-2.292,0.074-4.658,0.051-7.058-0.047c-2.385-0.094-4.817-0.271-7.239-0.502c-12.418-1.174-24.526-3.822-30.24-5.32
			c-1.503-0.389-2.913-0.783-4.241-1.178c-0.541-0.158-1.07-0.328-1.597-0.488c0.282,0.598,0.616,1.197,1.002,1.781
			C111.402,73.726,115.57,76.886,123.077,78.414 M184.538,58.808v-0.007c-0.053-0.621-0.222-1.323-0.49-2.089
			c-0.294-0.789-0.69-1.64-1.212-2.521c-2.765-4.691-8.758-10.299-18.351-14.218c-0.413-0.171-0.941-0.379-1.562-0.604
			c-0.647-0.236-1.422-0.507-2.328-0.799c-4.636-1.492-12.491-3.509-23.001-4.45h-0.002l-0.328-0.031
			c-2.707-0.244-6.044-0.544-10.615-0.512c-0.109,0.074-0.229,0.164-0.376,0.268c-0.13,0.099-0.35,0.249-0.643,0.471
			c-1.089,0.79-2.164,1.618-3.223,2.475c-0.973,0.785-1.903,1.58-2.792,2.394c-0.906,0.825-1.8,1.697-2.664,2.601
			c-4.428,4.614-8.104,10.103-9.85,16.233v0.005v0.005v-0.005c-0.04,0.13-0.076,0.292-0.116,0.466
			c-0.04,0.179-0.08,0.394-0.119,0.649c-0.183,1.128-0.301,2.757-0.076,4.614c2.081,0.785,4.458,1.521,7.297,2.252
			c3.155,0.813,6.838,1.611,11.291,2.441v-0.004l0.005,0.004c0.831,0.154,1.516,0.289,2.25,0.428
			c3.89,0.756,8.951,1.738,15.031,2.342c3.653,0.367,7.676,0.594,12.042,0.561c4.361-0.033,9.066-0.334,14.099-1.031
			c1.876-0.262,3.832-0.561,5.817-1.01c1.898-0.43,3.795-0.984,5.624-1.752c1.364-1.139,2.533-2.43,3.306-3.926
			C184.33,62.552,184.726,60.827,184.538,58.808 M119.309,33.882c-1.276,0.09-2.557,0.193-3.85,0.318h-0.007
			c-0.835,0.083-1.716,0.213-2.636,0.385c-0.925,0.171-1.887,0.394-2.855,0.654c-4.995,1.337-10.411,3.776-14.03,7.014
			c-0.868,0.778-1.802,1.816-2.566,3.041c-0.88,1.412-1.52,3.071-1.532,4.843c-0.018,1.756,0.593,3.666,2.215,5.626
			c0.958,1.164,2.277,2.345,4.016,3.516c0.912,0.613,1.852,1.198,2.862,1.771v0.002c0.495,0.28,1.002,0.549,1.521,0.815
			c0.002-0.557,0.029-1.107,0.073-1.65c0.252-2.917,1.054-5.447,1.81-7.213v-0.002c0.584-1.372,1.278-2.743,2.06-4.078
			c0.767-1.321,1.607-2.599,2.491-3.817C112.23,40.458,116.237,36.529,119.309,33.882 M168.29,78.603
			c-3.917,1.332-8.553,2.627-14.029,3.598c-5.459,0.969-11.767,1.609-19.046,1.645h-0.007h-0.111
			c-1.579,0.002-3.076-0.043-4.481-0.15c-1.42-0.094-2.782-0.236-4.085-0.422c-6.655-0.92-11.412-2.805-13.643-4.18
			c-0.857-0.527-1.656-1.08-2.397-1.643c-0.743-0.564-1.42-1.145-2.036-1.725c-3.025-2.873-4.672-5.996-5.452-9.039
			c-4.091-1.65-7.271-3.455-9.674-5.51c-2.582-2.214-4.258-4.694-5.193-7.561c-0.314-0.979-0.49-1.953-0.537-2.907
			c-0.049-0.946,0.028-1.881,0.211-2.786c0.899-4.527,4.4-8.405,7.845-10.89c0.507-0.37,1.085-0.746,1.73-1.135
			c0.618-0.38,1.328-0.778,2.114-1.188c3.92-2.043,9.382-4.119,14.983-4.887c1.984-0.273,3.942-0.457,5.86-0.577
			c1.798-0.111,3.599-0.162,5.376-0.164c2.207-1.476,4.453-2.842,6.712-4.11c2.347-1.318,4.708-2.522,7.061-3.626
			c11.942-5.604,23.769-8.604,32.901-10.035c0.104-0.097,0.208-0.182,0.309-0.251c0.57-0.394,1.263-0.563,1.876-0.563v0.007
			c0.835,0,1.591,0.351,2.132,0.923c0.546,0.569,0.881,1.352,0.881,2.221h0.002h-0.002c0,0.867-0.335,1.649-0.881,2.22
			c-0.541,0.567-1.292,0.922-2.132,0.922c-0.457,0-0.876-0.106-1.258-0.282c-0.097-0.051-0.186-0.097-0.275-0.15
			c-0.222-0.14-0.43-0.313-0.615-0.507c-1.838,0.228-3.699,0.51-5.576,0.859c-2.096,0.39-4.177,0.846-6.225,1.364
			c-9.494,2.408-18.93,6.262-27.396,11.252c0.761,0.051,1.502,0.111,2.227,0.174c1.666,0.152,3.298,0.346,4.877,0.554
			c0.268-0.193,0.584-0.38,0.917-0.544c0.476-0.243,1.023-0.461,1.605-0.656c2.871-0.966,6.87-1.456,8.893-1.646
			c5.066-0.488,9.098-0.674,12.768-0.498c3.709,0.172,7.036,0.713,10.675,1.669l0.017,0.01h0.007
			c2.542,0.668,4.829,1.487,6.886,2.409c2.055,0.93,3.861,1.963,5.438,3.052c8.258,5.759,10.419,13.447,10.03,18.132v0.007
			c-0.06,0.766-0.171,1.587-0.335,2.439c-0.169,0.84-0.376,1.685-0.657,2.542c-1.42,4.402-4.477,8.988-10.412,12.5
			c-0.645,0.389-1.263,0.729-1.859,1.035c-0.558,0.291-1.14,0.576-1.758,0.855c-0.483,0.379-1.009,0.764-1.574,1.146
			c-0.584,0.4-1.198,0.793-1.83,1.174C175.905,75.628,172.059,77.316,168.29,78.603"/>
		<path fill-rule="evenodd" clip-rule="evenodd" fill="#00A651" d="M151.492,53.443L151.492,53.443h-0.005
			c0,2.533-1.024,4.824-2.68,6.479c-1.656,1.656-3.95,2.686-6.486,2.686c-2.533,0-4.824-1.029-6.485-2.686
			c-1.651-1.654-2.675-3.945-2.675-6.479h-0.005h0.005c0-2.537,1.024-4.834,2.675-6.487c1.661-1.652,3.953-2.678,6.485-2.678v-0.01
			v0.01c2.536,0,4.83,1.025,6.486,2.678c1.656,1.653,2.68,3.95,2.68,6.487H151.492z"/>
	</g>
</g>
</svg>
