<?xml version="1.0" encoding="utf-8"?>
<!-- Generator: Adobe Illustrator 15.0.0, SVG Export Plug-In . SVG Version: 6.00 Build 0)  -->
<!DOCTYPE svg PUBLIC "-//W3C//DTD SVG 1.1//EN" "http://www.w3.org/Graphics/SVG/1.1/DTD/svg11.dtd">
<svg version="1.1" id="Camada_1" xmlns="http://www.w3.org/2000/svg" xmlns:xlink="http://www.w3.org/1999/xlink" x="0px" y="0px"
	 width="348.5px" height="75.167px" viewBox="0 0 348.5 75.167" enable-background="new 0 0 348.5 75.167" xml:space="preserve">
<title>Ciencias Agrarias</title>
<desc>Created with Sketch.</desc>
<g id="Horizontal_PeB">
	<g>
		<path fill-rule="evenodd" clip-rule="evenodd" fill="#3f3f3f" d="M144.723,46.277c-6.081,2.916-9.801,4.653-15.323,4.653
			c-8.809,0-15.076-5.396-15.076-12.966c0-7.506,6.33-12.841,15.325-12.841c5.211,0,9.924,1.737,14.578,4.343v-9.429
			c-4.156-2.482-9.43-3.723-15.323-3.723c-16.191,0-25.434,10.546-25.434,21.836c0,10.92,8.187,21.589,24.627,21.589
			c6.265,0,10.732-1.178,16.626-4.219V46.277L144.723,46.277z"/>
		<path fill-rule="evenodd" clip-rule="evenodd" fill="#3f3f3f" d="M185.408,16.926h-12.221l-17.06,42.309h11.166l3.164-8.375
			h18.921l3.475,8.375h11.353L185.408,16.926L185.408,16.926z M186.278,43.477H173.25l6.202-16.439L186.278,43.477L186.278,43.477z"
			/>
		<path fill-rule="evenodd" clip-rule="evenodd" fill="#3f3f3f" d="M213.972,16.926v42.309h10.546v-17h8.374
			c9.739,0,13.959-6.823,13.959-12.778c0-5.77-4.343-12.531-14.021-12.531H213.972L213.972,16.926z M224.518,24.681h3.723
			c5.707,0,7.753,1.303,7.753,4.9c0,3.164-1.736,4.901-6.574,4.901h-4.901V24.681L224.518,24.681z"/>
		<polygon fill-rule="evenodd" clip-rule="evenodd" fill="#3f3f3f" points="288.539,51.48 267.882,51.48 267.882,41.306
			287.175,41.306 287.175,33.552 267.882,33.552 267.882,24.681 288.104,24.681 288.104,16.926 257.336,16.926 257.336,59.235 
			288.539,59.235 288.539,51.48 		"/>
		<path fill-rule="evenodd" clip-rule="evenodd" fill="#3f3f3f" d="M335.627,19.656c-5.336-2.295-9.616-3.288-14.333-3.288
			c-9.801,0-16.129,4.838-16.129,12.16c0,15.198,21.526,12.654,21.526,19.602c0,2.481-2.17,3.91-6.203,3.91
			c-4.652,0-8.374-1.429-14.455-5.461v9.12c4.22,2.171,7.88,4.095,15.261,4.095c9.43,0,16.254-4.716,16.254-12.843
			c0-14.763-21.525-12.965-21.525-19.355c0-2.108,2.42-3.474,6.202-3.474c3.599,0,7.259,1.055,13.402,3.784V19.656L335.627,19.656z"
			/>
		<path fill-rule="evenodd" clip-rule="evenodd" fill="#3f3f3f" d="M92.627,46.286L92.627,46.286l0.005-0.004
			c0.223-0.385,0.451-0.836,0.671-1.351c0.216-0.509,0.412-1.06,0.562-1.636c0.789-3.001,0.544-7.066-3.443-11.11l-0.013-0.014
			c-0.759-0.766-1.575-1.471-2.446-2.116c-0.864-0.639-1.792-1.224-2.772-1.755c-5.055-2.735-11.351-3.9-17.917-3.782l0,0
			l-0.027,0.001l0,0c-0.115,0.005-0.433,0.02-0.918,0.046c-0.436,0.026-1.029,0.063-1.748,0.115
			c-1.76,0.128-4.092,0.308-5.822,0.478c2.891,0.536,5.568,1.122,8.188,1.893c3.558,1.05,7.009,2.444,10.754,4.521
			c0.547,0.303,1.068,0.606,1.567,0.911c6.033,3.678,9.051,7.592,10.301,11.121c0.781,2.213,0.874,4.276,0.574,6.043
			c0.069-0.073,0.139-0.149,0.207-0.223c0.823-0.915,1.587-1.952,2.28-3.137L92.627,46.286L92.627,46.286z M38.875,62.164
			l0.025,0.007c0.937,0.191,1.925,0.353,2.965,0.484c1.056,0.135,2.138,0.237,3.248,0.307c5.813,0.358,12.753-0.132,20.371-1.7
			V61.26l0.002-0.002h0.004c0.736-0.151,1.429-0.301,2.08-0.454c0.632-0.152,1.316-0.323,2.046-0.518
			c0.138-0.036,0.275-0.074,0.413-0.112c-1.139,0.072-2.228,0.12-3.252,0.153h-0.014c-1.804,0.058-3.665,0.038-5.552-0.038
			c-1.876-0.077-3.79-0.214-5.698-0.396c-9.768-0.924-19.293-3.006-23.788-4.184c-1.182-0.309-2.292-0.617-3.336-0.929
			c-0.425-0.125-0.843-0.255-1.258-0.386c0.223,0.474,0.486,0.944,0.79,1.404C29.691,58.477,32.969,60.96,38.875,62.164
			L38.875,62.164z M87.229,46.738l-0.001-0.005c-0.045-0.488-0.176-1.043-0.39-1.644c-0.229-0.621-0.542-1.289-0.952-1.984
			c-2.174-3.691-6.887-8.102-14.436-11.186h-0.001l0,0c-0.323-0.133-0.74-0.295-1.229-0.474c-0.509-0.184-1.119-0.397-1.83-0.626
			c-3.646-1.174-9.826-2.763-18.094-3.503h-0.004l-0.257-0.022c-2.131-0.192-4.754-0.428-8.352-0.402
			c-0.085,0.059-0.181,0.128-0.295,0.21c-0.103,0.074-0.272,0.195-0.507,0.368c-0.854,0.623-1.702,1.273-2.535,1.947l0,0h-0.001
			c-0.762,0.618-1.495,1.244-2.194,1.882c-0.712,0.651-1.416,1.334-2.097,2.048c-3.481,3.629-6.377,7.947-7.748,12.77v0.002v0.004
			l-0.001-0.004c-0.03,0.106-0.06,0.232-0.091,0.368c-0.029,0.142-0.063,0.31-0.095,0.51c-0.142,0.891-0.236,2.171-0.058,3.635
			c1.637,0.613,3.506,1.195,5.738,1.77c2.482,0.639,5.384,1.266,8.883,1.918l0,0h0.001l0.006,0.003
			c0.649,0.119,1.189,0.225,1.769,0.337c3.06,0.593,7.042,1.364,11.823,1.84c2.872,0.289,6.038,0.468,9.474,0.441
			c3.43-0.027,7.134-0.263,11.092-0.81c1.476-0.204,3.013-0.442,4.576-0.796c1.491-0.338,2.984-0.775,4.423-1.38
			c1.074-0.894,1.994-1.909,2.604-3.086C87.063,49.686,87.373,48.324,87.229,46.738L87.229,46.738z M35.909,27.129
			c-1.001,0.069-2.009,0.152-3.029,0.25l-0.003,0.002c-0.658,0.062-1.352,0.164-2.075,0.298c-0.728,0.138-1.481,0.31-2.246,0.515
			c-3.93,1.051-8.189,2.974-11.037,5.52c-0.684,0.614-1.418,1.431-2.019,2.392c-0.691,1.112-1.195,2.416-1.207,3.809
			c-0.012,1.383,0.469,2.885,1.743,4.43c0.756,0.916,1.79,1.842,3.158,2.764c0.718,0.48,1.456,0.942,2.253,1.393v0.002
			c0.39,0.221,0.787,0.433,1.196,0.642c0.002-0.441,0.025-0.873,0.06-1.298c0.197-2.296,0.829-4.287,1.422-5.674l0,0V42.17
			c0.459-1.082,1.008-2.155,1.621-3.209c0.604-1.039,1.265-2.043,1.959-3.005C30.342,32.303,33.494,29.208,35.909,27.129
			L35.909,27.129z M74.442,62.313c-3.081,1.048-6.726,2.065-11.037,2.83c-4.293,0.762-9.254,1.266-14.982,1.292h-0.005h-0.087
			c-1.245,0.003-2.419-0.036-3.526-0.115c-1.115-0.076-2.187-0.188-3.209-0.333c-5.238-0.727-8.98-2.208-10.734-3.288l-0.001-0.002
			c-0.676-0.415-1.305-0.849-1.887-1.29c-0.582-0.444-1.116-0.899-1.601-1.359c-2.38-2.259-3.677-4.717-4.291-7.112
			c-3.218-1.296-5.721-2.717-7.61-4.335c-2.03-1.738-3.35-3.692-4.084-5.945v-0.001h-0.001c-0.249-0.77-0.385-1.534-0.423-2.286
			c-0.036-0.745,0.023-1.479,0.166-2.191c0.709-3.562,3.464-6.613,6.171-8.569h0.001v-0.001c0.398-0.288,0.855-0.588,1.361-0.893
			c0.487-0.297,1.044-0.61,1.663-0.933c3.085-1.607,7.381-3.241,11.789-3.844c1.56-0.214,3.099-0.361,4.611-0.453
			c1.414-0.087,2.829-0.127,4.227-0.13c1.738-1.161,3.502-2.236,5.279-3.232c1.848-1.035,3.706-1.986,5.556-2.854
			c9.397-4.407,18.7-6.77,25.883-7.896c0.082-0.076,0.161-0.142,0.242-0.197c0.449-0.311,0.995-0.441,1.477-0.441h0.002v0.006
			c0.656,0,1.25,0.276,1.677,0.724c0.428,0.449,0.69,1.064,0.691,1.746h0.003v0.001l0,0H81.76c-0.001,0.682-0.264,1.299-0.691,1.748
			c-0.427,0.446-1.018,0.725-1.677,0.725v0.003H79.39l0,0v-0.003c-0.356,0-0.69-0.083-0.991-0.225
			c-0.074-0.036-0.146-0.077-0.214-0.116c-0.178-0.111-0.341-0.246-0.485-0.398c-1.447,0.177-2.909,0.403-4.385,0.677
			c-1.652,0.306-3.287,0.665-4.897,1.071c-7.469,1.895-14.896,4.925-21.554,8.851c0.599,0.041,1.183,0.089,1.751,0.14
			c1.31,0.118,2.596,0.27,3.839,0.435c0.211-0.152,0.455-0.296,0.72-0.43c0.375-0.188,0.804-0.36,1.267-0.516
			c2.258-0.76,5.4-1.145,6.992-1.296c3.988-0.38,7.159-0.528,10.046-0.391c2.916,0.139,5.536,0.56,8.398,1.314l0.014,0.006h0.004
			c2,0.527,3.8,1.17,5.419,1.899c1.617,0.729,3.038,1.541,4.276,2.401c6.498,4.526,8.197,10.572,7.894,14.262v0.006
			c-0.05,0.604-0.137,1.244-0.267,1.916c-0.131,0.662-0.299,1.33-0.516,2c-1.118,3.464-3.522,7.076-8.191,9.838
			c-0.507,0.301-0.993,0.571-1.463,0.813c-0.438,0.227-0.897,0.451-1.383,0.673c-0.379,0.297-0.795,0.598-1.238,0.901
			c-0.46,0.315-0.94,0.623-1.44,0.923C80.432,59.97,77.41,61.301,74.442,62.313L74.442,62.313z"/>
		<path fill-rule="evenodd" clip-rule="evenodd" fill="#3f3f3f" d="M61.228,42.515L61.228,42.515h-0.002
			c0,1.993-0.807,3.797-2.109,5.099c-1.305,1.305-3.107,2.11-5.1,2.11v0.001h-0.002l0,0v-0.001c-1.996,0-3.795-0.806-5.1-2.11
			c-1.302-1.302-2.108-3.105-2.108-5.099h-0.004l0,0l0,0h0.004c0-1.994,0.806-3.798,2.108-5.101c1.305-1.303,3.104-2.109,5.1-2.109
			V35.3l0,0l0,0v0.005c1.994,0,3.797,0.806,5.102,2.109c1.303,1.303,2.109,3.106,2.109,5.1L61.228,42.515L61.228,42.515
			L61.228,42.515z"/>
	</g>
</g>
</svg>
