<?xml version="1.0" encoding="utf-8"?>
<!-- Generator: Adobe Illustrator 15.0.0, SVG Export Plug-In . SVG Version: 6.00 Build 0)  -->
<!DOCTYPE svg PUBLIC "-//W3C//DTD SVG 1.1//EN" "http://www.w3.org/Graphics/SVG/1.1/DTD/svg11.dtd" />
<svg version="1.1" id="Camada_1" xmlns:x="&ns_extend;" xmlns:i="&ns_ai;" xmlns:graph="&ns_graphs;"
	 xmlns="http://www.w3.org/2000/svg" xmlns:xlink="http://www.w3.org/1999/xlink" x="0px" y="0px" width="150px" height="120px"
	 viewBox="0 0 150 120" enable-background="new 0 0 150 120" xml:space="preserve" class="svg-capes-logo-vertical">
<metadata>
	<sfw  xmlns="&ns_sfw;">
		<slices></slices>
		<sliceSourceBounds  x="356.979" y="247.641" width="127.93" height="100" bottomLeftOrigin="true"></sliceSourceBounds>
	</sfw>
</metadata>
<g>
	<g>
		<path class="capes-logo-65-verde" d="M31.961,31.343c-4.395,7.785-6.474,15.569-6.244,23.353c3.93-2.542,8.168-4.006,12.716-4.393
			c-10.327,4.943-15.26,14.713-14.797,29.309c0.23,8.729,2.311,15.604,6.243,20.621c2.466,3.167,5.317,5.523,8.554,7.065
			c-5.318-0.383-10.115-2.256-14.393-5.611c-4.277-3.356-7.458-7.583-9.539-12.676c-2.312-5.942-3.468-12.464-3.468-19.564
			c0-4.939,0.578-10.187,1.735-15.741c2.466-11.962,7.243-21.531,14.336-28.708c7.089-7.177,15.299-10.572,24.626-10.188
			C43.638,16.815,37.049,22.325,31.961,31.343"/>
		<path class="capes-logo-65-azul" d="M79.765,10.019L84.002,10l-0.063,8.662H58.384L56.347,35.84c4.548-0.364,9.026,0.073,13.44,1.313
			c9.027,2.553,15.07,8.352,18.124,17.396c1.288,3.868,1.933,8.171,1.933,12.911c-0.475,4.669-1.458,8.682-2.952,12.035
			c-3.599,8.172-9.299,12.438-17.104,12.803C77.864,87.776,81.9,80.774,81.9,71.289c0-3.28-0.475-6.38-1.425-9.299
			c-4.479-10.503-12.353-15.756-23.621-15.756c-2.646,0-5.429,0.329-8.347,0.986l7.432-37.202H79.765z"/>
		<path fill-rule="evenodd" clip-rule="evenodd" class="capes-logo-65-azul" d="M98.928,53.466c-1.185,0.569-1.915,0.91-2.991,0.91
			c-1.722,0-2.943-1.057-2.943-2.534c0-1.466,1.236-2.505,2.991-2.505c1.02,0,1.941,0.335,2.848,0.848v-1.842
			c-0.812-0.483-1.841-0.727-2.992-0.727c-3.161,0-4.965,2.057-4.965,4.263c0,2.133,1.597,4.217,4.806,4.217
			c1.225,0,2.097-0.232,3.247-0.826V53.466z"/>
		<path fill-rule="evenodd" clip-rule="evenodd" class="capes-logo-65-azul" d="M106.875,47.735h-2.388l-3.332,8.26h2.183l0.616-1.635h3.696
			l0.677,1.635h2.218L106.875,47.735z M107.043,52.92h-2.544l1.212-3.213L107.043,52.92z"/>
		<path fill-rule="evenodd" clip-rule="evenodd" class="capes-logo-65-azul" d="M112.451,47.734v8.262h2.061v-3.32h1.635
			c1.902,0,2.726-1.331,2.726-2.495c0-1.125-0.847-2.447-2.736-2.447H112.451z M114.512,49.247h0.726
			c1.115,0,1.516,0.256,1.516,0.959c0,0.617-0.341,0.958-1.286,0.958h-0.955V49.247z"/>
		<polygon fill-rule="evenodd" clip-rule="evenodd" class="capes-logo-65-azul" points="127.014,54.479 122.979,54.479 122.979,52.496 
			126.747,52.496 126.747,50.981 122.979,50.981 122.979,49.247 126.929,49.247 126.929,47.734 120.921,47.734 120.921,55.996 
			127.014,55.996 		"/>
		<path fill-rule="evenodd" clip-rule="evenodd" class="capes-logo-65-azul" d="M136.209,48.268c-1.043-0.448-1.877-0.644-2.799-0.644
			c-1.915,0-3.15,0.945-3.15,2.376c0,2.967,4.204,2.472,4.204,3.827c0,0.486-0.424,0.763-1.212,0.763
			c-0.91,0-1.635-0.277-2.821-1.066v1.782c0.823,0.424,1.537,0.8,2.979,0.8c1.843,0,3.174-0.921,3.174-2.508
			c0-2.882-4.205-2.532-4.205-3.78c0-0.41,0.473-0.678,1.213-0.678c0.702,0,1.417,0.205,2.617,0.74V48.268z"/>
		<path fill-rule="evenodd" clip-rule="evenodd" class="capes-logo-65-azul" d="M136.126,31.812v-0.001l0.004-0.001
			c0.131-0.224,0.262-0.486,0.389-0.785c0.127-0.295,0.24-0.614,0.327-0.95c0.457-1.74,0.314-4.099-2.002-6.447l-0.003-0.007
			c-0.441-0.446-0.917-0.853-1.421-1.228c-0.502-0.372-1.042-0.712-1.61-1.021c-2.933-1.585-6.585-2.263-10.397-2.192h-0.014
			c-0.067,0.003-0.252,0.01-0.534,0.027c-0.253,0.014-0.595,0.035-1.015,0.066c-1.021,0.074-2.375,0.18-3.378,0.277
			c1.678,0.308,3.229,0.649,4.751,1.099c2.063,0.609,4.067,1.418,6.242,2.623c0.316,0.177,0.618,0.35,0.909,0.529
			c3.502,2.132,5.251,4.407,5.976,6.454c0.456,1.283,0.511,2.482,0.335,3.508c0.039-0.045,0.082-0.089,0.121-0.132
			C135.283,33.102,135.726,32.5,136.126,31.812L136.126,31.812z M104.933,41.026l0.014,0.002c0.542,0.111,1.119,0.205,1.722,0.282
			c0.61,0.079,1.242,0.139,1.887,0.178c3.371,0.209,7.399-0.077,11.818-0.986h0.001h0.002c0.43-0.09,0.832-0.178,1.208-0.267
			c0.368-0.089,0.767-0.189,1.188-0.299c0.08-0.021,0.16-0.044,0.239-0.066c-0.66,0.043-1.292,0.071-1.89,0.089h-0.006
			c-1.047,0.033-2.129,0.02-3.221-0.023c-1.091-0.044-2.201-0.123-3.308-0.229c-5.669-0.537-11.198-1.745-13.807-2.426
			c-0.684-0.18-1.326-0.36-1.935-0.541c-0.247-0.072-0.488-0.15-0.73-0.223c0.13,0.273,0.282,0.548,0.459,0.816
			C99.604,38.885,101.506,40.327,104.933,41.026 M132.994,32.072L132.994,32.072c-0.026-0.288-0.102-0.607-0.228-0.953
			c-0.132-0.363-0.315-0.749-0.552-1.154c-1.262-2.141-3.995-4.701-8.379-6.492c-0.188-0.077-0.428-0.17-0.712-0.273
			c-0.296-0.108-0.651-0.23-1.062-0.362c-2.116-0.682-5.705-1.606-10.504-2.035h-0.001l-0.148-0.014
			c-1.235-0.112-2.759-0.248-4.848-0.234c-0.049,0.039-0.104,0.077-0.172,0.122c-0.058,0.043-0.154,0.115-0.292,0.215
			c-0.496,0.362-0.988,0.739-1.471,1.129h-0.001c-0.444,0.358-0.869,0.725-1.274,1.096c-0.414,0.375-0.82,0.773-1.219,1.185
			c-2.017,2.106-3.699,4.616-4.495,7.412v0.001h-0.001c-0.017,0.062-0.036,0.133-0.052,0.213c-0.018,0.083-0.037,0.181-0.056,0.295
			c-0.083,0.517-0.136,1.263-0.033,2.111c0.95,0.356,2.036,0.692,3.329,1.026c1.439,0.371,3.127,0.735,5.155,1.112h0.002
			l0.003,0.001c0.378,0.07,0.689,0.132,1.025,0.197c1.776,0.344,4.089,0.792,6.86,1.068c1.669,0.167,3.508,0.271,5.503,0.257
			c1.987-0.017,4.139-0.154,6.433-0.47c0.858-0.117,1.749-0.257,2.658-0.462c0.865-0.196,1.73-0.452,2.566-0.802
			c0.625-0.517,1.156-1.106,1.511-1.79C132.896,33.784,133.08,32.994,132.994,32.072 M103.211,20.694
			c-0.579,0.041-1.166,0.087-1.758,0.146h-0.003c-0.379,0.037-0.783,0.094-1.201,0.175c-0.424,0.078-0.86,0.177-1.306,0.297
			c-2.28,0.609-4.752,1.726-6.403,3.205c-0.397,0.354-0.823,0.828-1.171,1.387c-0.4,0.644-0.694,1.401-0.702,2.208
			c-0.006,0.804,0.272,1.676,1.013,2.572c0.438,0.529,1.037,1.07,1.834,1.604c0.414,0.278,0.845,0.547,1.305,0.806v0.003
			c0.226,0.127,0.457,0.252,0.695,0.371c0-0.254,0.015-0.507,0.033-0.751c0.116-1.332,0.483-2.49,0.823-3.294
			c0.27-0.63,0.589-1.252,0.945-1.861c0.349-0.604,0.732-1.188,1.136-1.745C99.98,23.698,101.81,21.901,103.211,20.694
			 M125.574,41.112c-1.787,0.608-3.902,1.199-6.404,1.643c-2.492,0.44-5.372,0.734-8.697,0.749h-0.002h-0.049
			c-0.726,0.003-1.406-0.02-2.047-0.066c-0.65-0.043-1.269-0.109-1.864-0.193c-3.04-0.423-5.213-1.282-6.227-1.907l-0.002-0.001
			c-0.396-0.243-0.757-0.492-1.096-0.749c-0.34-0.26-0.647-0.525-0.931-0.791c-1.38-1.31-2.133-2.736-2.489-4.127
			c-1.867-0.753-3.319-1.577-4.418-2.515c-1.176-1.008-1.942-2.143-2.369-3.454c-0.146-0.447-0.223-0.888-0.244-1.326
			c-0.02-0.432,0.014-0.856,0.097-1.272c0.409-2.064,2.008-3.834,3.582-4.972c0.229-0.164,0.494-0.34,0.786-0.517
			c0.286-0.171,0.607-0.354,0.967-0.541c1.789-0.933,4.284-1.883,6.843-2.23c0.903-0.125,1.8-0.21,2.676-0.265
			c0.822-0.049,1.641-0.075,2.455-0.075c1.005-0.674,2.028-1.296,3.062-1.875c1.072-0.601,2.149-1.151,3.225-1.655
			c5.451-2.558,10.853-3.929,15.021-4.583c0.047-0.043,0.096-0.083,0.143-0.115c0.259-0.18,0.576-0.255,0.855-0.255v0.002
			c0.382,0,0.726,0.162,0.975,0.419c0.247,0.263,0.4,0.618,0.4,1.015h0.001v0.001h-0.001c0,0.396-0.153,0.754-0.4,1.011
			c-0.249,0.262-0.593,0.423-0.975,0.423v0.003v-0.003c-0.208,0-0.398-0.048-0.575-0.131c-0.044-0.021-0.085-0.042-0.122-0.068
			c-0.104-0.065-0.199-0.14-0.283-0.231c-0.839,0.103-1.689,0.236-2.549,0.393c-0.955,0.178-1.905,0.388-2.84,0.623
			c-4.335,1.1-8.643,2.859-12.508,5.136c0.349,0.026,0.687,0.053,1.017,0.082c0.762,0.069,1.506,0.154,2.229,0.251
			c0.122-0.088,0.263-0.171,0.417-0.249c0.216-0.109,0.467-0.21,0.734-0.298c1.313-0.441,3.137-0.667,4.06-0.753
			c2.313-0.221,4.152-0.306,5.829-0.229c1.692,0.081,3.215,0.327,4.873,0.765l0.007,0.002h0.003
			c1.159,0.308,2.207,0.681,3.145,1.104c0.939,0.422,1.763,0.891,2.483,1.394c3.771,2.625,4.756,6.134,4.58,8.278v0.002
			c-0.029,0.35-0.08,0.721-0.155,1.112c-0.076,0.381-0.17,0.772-0.299,1.161c-0.648,2.007-2.043,4.106-4.754,5.708
			c-0.294,0.174-0.577,0.332-0.849,0.471c-0.254,0.133-0.522,0.261-0.801,0.394c-0.223,0.168-0.462,0.345-0.719,0.521
			c-0.268,0.183-0.548,0.36-0.838,0.535C129.049,39.753,127.295,40.526,125.574,41.112"/>
		<path fill-rule="evenodd" clip-rule="evenodd" class="capes-logo-65-verde-escuro" d="M117.905,29.622L117.905,29.622h-0.004
			c0,1.158-0.467,2.203-1.223,2.961c-0.755,0.756-1.802,1.221-2.959,1.221v0.003h-0.002v-0.003c-1.156,0-2.204-0.465-2.958-1.221
			c-0.757-0.758-1.224-1.803-1.225-2.961h-0.003h0.003c0-1.156,0.468-2.204,1.226-2.957c0.753-0.757,1.801-1.227,2.957-1.227v-0.002
			h0.002v0.002c1.157,0,2.204,0.47,2.959,1.227c0.756,0.753,1.223,1.801,1.223,2.957H117.905z"/>
	</g>
	<text transform="matrix(1 0 0 1 68.5679 103.9424)" class="capes-logo-65-verde-escuro" font-family="'GillSansMT-Bold'" font-size="18.9686">anos</text>
	<g>
		<path class="capes-logo-65-amarelo" d="M66.702,97.879c-4.971,5.663-11.158,8.805-18.557,9.422c10.096-4.856,14.914-14.453,14.451-28.787
			c-0.462-14.337-5.28-23.701-14.451-28.094c7.013,0.54,12.987,3.429,17.921,8.67c4.93,5.241,7.515,11.524,7.745,18.845
			C74.043,85.566,71.673,92.213,66.702,97.879"/>
	</g>
</g>
</svg>
