<?xml version="1.0" encoding="utf-8"?>
<!-- Generator: Adobe Illustrator 15.0.0, SVG Export Plug-In . SVG Version: 6.00 Build 0)  -->
<!DOCTYPE svg PUBLIC "-//W3C//DTD SVG 1.1//EN" "http://www.w3.org/Graphics/SVG/1.1/DTD/svg11.dtd">
<svg version="1.1" id="Camada_1" xmlns="http://www.w3.org/2000/svg" xmlns:xlink="http://www.w3.org/1999/xlink" x="0px" y="0px"
	 width="116px" height="116px" viewBox="0 0 116 116" enable-background="new 0 0 116 116" xml:space="preserve">
<title>Ciencias Agrarias</title>
<desc>Created with Sketch.</desc>
<g>
	<rect x="53.788" y="8.394" fill="#3f3f3f" width="8.423" height="11.869"/>
	<rect x="53.788" y="95.737" fill="#3f3f3f" width="8.423" height="11.869"/>
	<path fill="#3f3f3f" d="M58.048,23.773c-18.873,0-34.227,15.354-34.227,34.227c0,18.873,15.354,34.227,34.227,34.227
		S92.274,76.873,92.274,58C92.274,39.127,76.921,23.773,58.048,23.773z M54.899,83.568C42.174,82.011,32.287,71.139,32.287,58
		s9.888-24.011,22.612-25.569V83.568z"/>
	
		<rect x="84.669" y="21.185" transform="matrix(0.7071 0.7071 -0.7071 0.7071 45.2123 -54.9065)" fill="#3f3f3f" width="8.423" height="11.869"/>
	
		<rect x="22.908" y="82.946" transform="matrix(-0.7071 -0.7071 0.7071 -0.7071 -16.5522 170.9046)" fill="#3f3f3f" width="8.423" height="11.869"/>
	<rect x="8.394" y="53.789" fill="#3f3f3f" width="11.869" height="8.423"/>
	<rect x="95.737" y="53.789" fill="#3f3f3f" width="11.869" height="8.423"/>
	
		<rect x="21.185" y="22.908" transform="matrix(0.7071 0.7071 -0.7071 0.7071 27.1184 -11.2331)" fill="#3f3f3f" width="11.869" height="8.423"/>
	
		<rect x="82.946" y="84.67" transform="matrix(-0.7071 -0.7071 0.7071 -0.7071 88.88 214.577)" fill="#3f3f3f" width="11.869" height="8.422"/>
</g>
</svg>
