<?xml version="1.0" encoding="utf-8"?>
<!-- Generator: Adobe Illustrator 15.0.0, SVG Export Plug-In . SVG Version: 6.00 Build 0)  -->
<!DOCTYPE svg PUBLIC "-//W3C//DTD SVG 1.1//EN" "http://www.w3.org/Graphics/SVG/1.1/DTD/svg11.dtd" />
<svg version="1.1" id="Camada_1" xmlns:x="&ns_extend;" xmlns:i="&ns_ai;" xmlns:graph="&ns_graphs;"
	 xmlns="http://www.w3.org/2000/svg" xmlns:xlink="http://www.w3.org/1999/xlink" x="0px" y="0px" width="100px" height="31px"
	 viewBox="0 0 100 31" enable-background="new 0 0 100 31" xml:space="preserve" class="svg-mec-logo">
<metadata>
	<sfw  xmlns="&ns_sfw;">
		<slices></slices>
		<sliceSourceBounds  x="-7871" y="-260" width="16383" height="35.35" bottomLeftOrigin="true"></sliceSourceBounds>
	</sfw>
</metadata>
<g>
	<path d="M-0.021,3.052h1.033l3.292,5.355l3.293-5.355h1.033v9.813h-1.02V4.916l-3.292,5.257H4.267L0.973,4.931v7.934h-0.994V3.052z
		"/>
	<path d="M11.227,3.052h1.02v9.813h-1.02V3.052z"/>
	<path d="M14.841,3.052h0.956l5.694,7.864V3.052h0.995v9.813h-0.814l-5.836-8.046v8.046h-0.995V3.052z"/>
	<path d="M25.081,3.052h1.02v9.813h-1.02V3.052z"/>
	<path d="M31.808,13.005c-0.723,0-1.384-0.128-1.982-0.386c-0.599-0.257-1.168-0.651-1.71-1.184l0.632-0.813
		c0.474,0.467,0.952,0.815,1.433,1.045c0.482,0.229,1.038,0.343,1.666,0.343c0.61,0,1.099-0.156,1.465-0.469
		c0.366-0.314,0.549-0.714,0.549-1.2v-0.026c0-0.226-0.034-0.429-0.104-0.61c-0.069-0.183-0.189-0.349-0.362-0.498
		s-0.412-0.285-0.718-0.407c-0.307-0.121-0.697-0.238-1.171-0.35c-0.518-0.122-0.969-0.262-1.354-0.421
		c-0.384-0.158-0.701-0.351-0.951-0.574c-0.25-0.225-0.436-0.486-0.556-0.785c-0.121-0.299-0.182-0.649-0.182-1.052V5.59
		c0-0.384,0.073-0.739,0.22-1.065c0.146-0.327,0.353-0.61,0.621-0.849c0.267-0.238,0.58-0.425,0.942-0.561
		c0.361-0.136,0.758-0.203,1.188-0.203c0.662,0,1.242,0.101,1.737,0.301c0.495,0.201,0.975,0.503,1.44,0.904l-0.595,0.855
		c-0.421-0.374-0.845-0.645-1.271-0.813c-0.426-0.168-0.872-0.252-1.337-0.252c-0.594,0-1.063,0.151-1.408,0.456
		c-0.344,0.303-0.516,0.679-0.516,1.128V5.52c0,0.233,0.034,0.441,0.103,0.623c0.069,0.183,0.194,0.351,0.375,0.506
		c0.181,0.153,0.43,0.294,0.749,0.42s0.728,0.245,1.227,0.357c1.007,0.243,1.75,0.579,2.228,1.009
		c0.477,0.43,0.716,1.019,0.716,1.767v0.028c0,0.42-0.076,0.801-0.229,1.143s-0.363,0.633-0.633,0.876
		c-0.269,0.243-0.592,0.43-0.971,0.561C32.669,12.939,32.254,13.005,31.808,13.005z"/>
	<path d="M39.296,4.075h-3.034V3.052h7.088v1.023h-3.034v8.789h-1.02V4.075z"/>
	<path d="M45.223,3.052h6.534v0.995l-5.514,0.028v3.351h4.931v0.995l-4.931,0.014v3.436h5.579v0.994h-6.599V3.052z M49.005,0.15
		l1.034,0.519l-1.458,1.5h-0.801L49.005,0.15z"/>
	<path d="M53.823,3.052h3.886c0.56,0,1.058,0.087,1.491,0.26c0.435,0.173,0.795,0.413,1.076,0.722
		c0.227,0.243,0.397,0.528,0.517,0.855c0.123,0.327,0.184,0.687,0.184,1.079v0.028c0,0.411-0.061,0.777-0.184,1.1
		c-0.119,0.322-0.288,0.604-0.51,0.842c-0.219,0.238-0.479,0.435-0.779,0.589c-0.301,0.153-0.629,0.264-0.98,0.329l2.774,4.009
		h-1.253l-2.62-3.813h-0.026h-2.558v3.813h-1.018V3.052z M57.624,8.057c0.336,0,0.648-0.047,0.935-0.141
		c0.284-0.093,0.529-0.227,0.737-0.399c0.206-0.173,0.369-0.383,0.484-0.631c0.117-0.247,0.176-0.53,0.176-0.848V6.01
		c0-0.607-0.204-1.081-0.61-1.423c-0.403-0.341-0.976-0.512-1.709-0.512h-2.796v3.981H57.624z"/>
	<path d="M63.195,3.052h1.02v9.813h-1.02V3.052z"/>
	<path d="M71.008,13.033c-0.69,0-1.315-0.136-1.88-0.407c-0.564-0.271-1.048-0.637-1.453-1.1c-0.403-0.464-0.716-1.001-0.935-1.613
		c-0.22-0.61-0.33-1.254-0.33-1.927V7.959c0-0.674,0.112-1.318,0.336-1.936c0.224-0.616,0.538-1.156,0.942-1.618
		c0.404-0.463,0.891-0.832,1.459-1.108c0.568-0.274,1.195-0.413,1.887-0.413c0.688,0,1.313,0.136,1.878,0.407
		c0.564,0.271,1.048,0.637,1.452,1.1c0.403,0.463,0.716,1,0.936,1.612s0.33,1.254,0.33,1.928c0.009,0.009,0.009,0.019,0,0.028
		c0,0.672-0.112,1.317-0.336,1.934c-0.225,0.617-0.539,1.157-0.943,1.62c-0.403,0.462-0.89,0.831-1.458,1.106
		C72.323,12.895,71.696,13.033,71.008,13.033z M71.034,12.01c0.515,0,0.989-0.105,1.426-0.314c0.435-0.211,0.806-0.499,1.116-0.863
		s0.554-0.79,0.729-1.275c0.176-0.486,0.265-1.01,0.265-1.57V7.959c0-0.562-0.089-1.087-0.265-1.578
		c-0.176-0.49-0.424-0.918-0.742-1.282c-0.317-0.364-0.694-0.654-1.13-0.869C72,4.015,71.524,3.907,71.008,3.907
		s-0.992,0.104-1.429,0.315c-0.434,0.21-0.805,0.497-1.115,0.862c-0.311,0.364-0.555,0.789-0.73,1.275s-0.265,1.009-0.265,1.57
		v0.028c0,0.561,0.089,1.086,0.265,1.577c0.176,0.49,0.425,0.918,0.743,1.281c0.317,0.364,0.694,0.655,1.129,0.87
		C70.039,11.902,70.518,12.01,71.034,12.01z"/>
	<path d="M81.557,3.052h3.136c0.707,0,1.355,0.124,1.945,0.372c0.59,0.247,1.098,0.591,1.522,1.03
		c0.428,0.439,0.755,0.955,0.987,1.549s0.35,1.236,0.35,1.928v0.028c0,0.69-0.117,1.336-0.35,1.934
		c-0.232,0.599-0.56,1.117-0.987,1.558c-0.425,0.438-0.933,0.784-1.522,1.036s-1.238,0.378-1.945,0.378h-3.136V3.052z
		 M84.692,11.842c0.57,0,1.086-0.098,1.551-0.294c0.465-0.197,0.859-0.468,1.182-0.813c0.323-0.346,0.573-0.755,0.748-1.227
		c0.179-0.472,0.266-0.979,0.266-1.521V7.959c0-0.543-0.087-1.05-0.266-1.521c-0.175-0.472-0.425-0.883-0.748-1.234
		c-0.322-0.35-0.717-0.625-1.182-0.826s-0.98-0.302-1.551-0.302h-2.115v7.767H84.692z"/>
	<path d="M94.946,2.981h0.955l4.119,9.883h-1.1l-1.057-2.593h-4.919l-1.073,2.593h-1.046L94.946,2.981z M97.463,9.276l-2.052-5.005
		l-2.066,5.005H97.463z"/>
	<path d="M23.298,18.612h7.257v2.313h-4.791v1.486h4.338v2.146h-4.338v1.555h4.855v2.313h-7.321V18.612z"/>
	<path d="M31.858,18.612h3.487c0.809,0,1.53,0.12,2.163,0.357c0.632,0.239,1.166,0.574,1.6,1.003
		c0.435,0.431,0.766,0.941,0.995,1.536c0.228,0.592,0.342,1.244,0.342,1.954v0.028c0,0.71-0.116,1.366-0.349,1.97
		c-0.231,0.603-0.568,1.124-1.007,1.563c-0.438,0.438-0.979,0.782-1.62,1.029c-0.641,0.248-1.367,0.371-2.176,0.371h-3.435V18.612z
		 M35.387,26.015c0.752,0,1.356-0.215,1.814-0.645c0.458-0.43,0.688-1.042,0.688-1.837v-0.028c0-0.784-0.229-1.395-0.688-1.828
		c-0.458-0.437-1.062-0.653-1.814-0.653h-1.024v4.991H35.387z"/>
	<path d="M45.752,28.607c-0.646,0-1.227-0.089-1.744-0.266c-0.517-0.178-0.956-0.451-1.317-0.82s-0.639-0.836-0.833-1.401
		c-0.193-0.565-0.29-1.232-0.29-1.998v-5.51h2.557v5.454c0,0.71,0.149,1.235,0.448,1.576c0.299,0.342,0.701,0.512,1.205,0.512
		c0.504,0,0.906-0.164,1.203-0.49c0.3-0.327,0.45-0.837,0.45-1.528v-5.523h2.558v5.44c0,0.794-0.103,1.478-0.304,2.053
		c-0.202,0.575-0.487,1.047-0.854,1.416c-0.364,0.369-0.807,0.643-1.329,0.82C46.98,28.519,46.396,28.607,45.752,28.607z"/>
	<path d="M55.77,28.621c-0.645,0-1.252-0.125-1.82-0.378c-0.567-0.252-1.06-0.604-1.479-1.059c-0.417-0.452-0.749-0.99-0.994-1.611
		c-0.245-0.622-0.367-1.297-0.367-2.026v-0.028c0-0.709,0.12-1.375,0.36-1.996c0.241-0.623,0.573-1.164,0.994-1.627
		c0.423-0.463,0.925-0.825,1.505-1.086c0.582-0.262,1.215-0.394,1.903-0.394c0.468,0,0.889,0.049,1.266,0.147
		c0.38,0.098,0.725,0.238,1.04,0.42c0.315,0.184,0.6,0.4,0.854,0.653c0.254,0.252,0.479,0.527,0.677,0.826l-1.885,1.585
		c-0.258-0.354-0.542-0.637-0.853-0.842s-0.684-0.309-1.123-0.309c-0.318,0-0.609,0.067-0.872,0.203s-0.488,0.32-0.677,0.555
		c-0.189,0.234-0.339,0.51-0.445,0.826c-0.108,0.318-0.162,0.654-0.162,1.01v0.027c0,0.365,0.054,0.709,0.162,1.031
		c0.106,0.322,0.256,0.6,0.445,0.834c0.188,0.233,0.414,0.418,0.677,0.554s0.554,0.203,0.872,0.203c0.233,0,0.446-0.028,0.64-0.085
		c0.192-0.056,0.368-0.138,0.529-0.245c0.158-0.106,0.311-0.233,0.451-0.378c0.141-0.146,0.282-0.306,0.419-0.483l1.887,1.458
		c-0.215,0.317-0.451,0.611-0.703,0.883c-0.254,0.271-0.543,0.505-0.867,0.701c-0.323,0.195-0.684,0.351-1.085,0.462
		C56.719,28.565,56.27,28.621,55.77,28.621z"/>
	<path d="M63.918,18.542h2.416l3.847,9.883h-2.686l-0.657-1.751h-3.486l-0.647,1.751H60.07L63.918,18.542z M66.112,24.57
		l-1.005-2.789l-1.021,2.789H66.112z"/>
	<path d="M73.177,29.954l1.007-1.486c-0.508-0.141-0.974-0.358-1.402-0.652c-0.426-0.294-0.792-0.656-1.103-1.086
		s-0.551-0.914-0.723-1.451c-0.174-0.537-0.258-1.114-0.258-1.731v-0.028c0-0.709,0.119-1.375,0.359-1.996
		c0.241-0.623,0.573-1.164,0.994-1.627c0.423-0.463,0.926-0.825,1.505-1.086c0.582-0.262,1.215-0.394,1.904-0.394
		c0.467,0,0.888,0.049,1.265,0.147c0.38,0.098,0.726,0.238,1.041,0.42c0.314,0.184,0.599,0.4,0.853,0.653
		c0.254,0.252,0.479,0.527,0.677,0.826l-1.884,1.585c-0.259-0.354-0.543-0.637-0.854-0.842s-0.684-0.309-1.122-0.309
		c-0.319,0-0.61,0.067-0.873,0.203s-0.488,0.32-0.677,0.555c-0.189,0.234-0.339,0.51-0.445,0.826
		c-0.108,0.318-0.162,0.654-0.162,1.01v0.027c0,0.365,0.054,0.709,0.162,1.031c0.106,0.322,0.256,0.6,0.445,0.834
		c0.188,0.233,0.414,0.418,0.677,0.554s0.554,0.203,0.873,0.203c0.232,0,0.445-0.028,0.639-0.085
		c0.192-0.056,0.368-0.138,0.529-0.245c0.158-0.106,0.311-0.233,0.451-0.378c0.142-0.146,0.282-0.306,0.419-0.483l1.887,1.458
		c-0.199,0.289-0.412,0.561-0.641,0.813c-0.228,0.253-0.483,0.472-0.768,0.658c-0.282,0.188-0.6,0.345-0.949,0.47
		c-0.348,0.126-0.733,0.208-1.154,0.246l-0.724,2.256L73.177,29.954z"/>
	<path d="M83.506,18.542h2.414l3.85,9.883h-2.688l-0.658-1.751h-3.485l-0.646,1.751h-2.636L83.506,18.542z M81.994,17.701
		c0.137-0.699,0.328-1.224,0.57-1.568c0.24-0.348,0.583-0.52,1.032-0.52c0.189,0,0.382,0.027,0.58,0.083
		c0.197,0.057,0.386,0.119,0.562,0.19c0.177,0.069,0.34,0.133,0.491,0.188c0.15,0.058,0.278,0.085,0.38,0.085
		c0.183,0,0.314-0.054,0.401-0.162c0.085-0.107,0.172-0.268,0.259-0.482l1.175,0.349c-0.139,0.701-0.329,1.226-0.569,1.571
		c-0.241,0.346-0.584,0.519-1.033,0.519c-0.197,0-0.393-0.028-0.586-0.085c-0.193-0.055-0.38-0.119-0.557-0.188
		c-0.176-0.07-0.341-0.134-0.49-0.188c-0.149-0.057-0.277-0.085-0.38-0.085c-0.183,0-0.314,0.055-0.401,0.162
		c-0.085,0.107-0.172,0.268-0.258,0.482L81.994,17.701z M85.7,24.57l-1.008-2.789l-1.02,2.789H85.7z"/>
	<path d="M95.14,28.621c-0.696,0-1.342-0.133-1.937-0.398c-0.595-0.268-1.106-0.629-1.537-1.087
		c-0.43-0.457-0.769-0.995-1.014-1.611c-0.245-0.618-0.366-1.276-0.366-1.978v-0.028c0-0.7,0.121-1.361,0.366-1.983
		c0.245-0.621,0.588-1.163,1.026-1.626c0.439-0.462,0.956-0.828,1.551-1.094c0.592-0.266,1.24-0.399,1.937-0.399
		s1.343,0.134,1.937,0.399c0.595,0.266,1.106,0.63,1.536,1.087c0.43,0.458,0.77,0.995,1.015,1.612
		c0.245,0.616,0.367,1.275,0.367,1.977v0.027c0,0.702-0.122,1.363-0.367,1.983c-0.245,0.622-0.589,1.164-1.027,1.627
		s-0.955,0.826-1.55,1.094C96.483,28.488,95.837,28.621,95.14,28.621z M95.159,26.169c0.346,0,0.66-0.071,0.944-0.211
		c0.286-0.14,0.527-0.329,0.726-0.567c0.199-0.239,0.354-0.517,0.467-0.833c0.112-0.318,0.169-0.654,0.169-1.011v-0.028
		c0-0.354-0.057-0.69-0.169-1.009c-0.113-0.317-0.271-0.598-0.478-0.841c-0.209-0.244-0.455-0.438-0.739-0.582
		c-0.286-0.145-0.601-0.218-0.945-0.218c-0.346,0-0.658,0.071-0.938,0.211c-0.282,0.14-0.523,0.329-0.726,0.568
		c-0.203,0.237-0.357,0.517-0.466,0.833c-0.108,0.318-0.163,0.654-0.163,1.01v0.027c0,0.355,0.057,0.692,0.169,1.011
		c0.113,0.317,0.27,0.598,0.474,0.841c0.201,0.243,0.444,0.436,0.731,0.581C94.5,26.096,94.814,26.169,95.159,26.169z"/>
</g>
</svg>
