<?xml version="1.0" encoding="utf-8"?>
<!-- Generator: Adobe Illustrator 15.0.0, SVG Export Plug-In . SVG Version: 6.00 Build 0)  -->
<!DOCTYPE svg PUBLIC "-//W3C//DTD SVG 1.1//EN" "http://www.w3.org/Graphics/SVG/1.1/DTD/svg11.dtd" />
<svg version="1.1" id="Camada_1" xmlns:x="&ns_extend;" xmlns:i="&ns_ai;" xmlns:graph="&ns_graphs;"
	 xmlns="http://www.w3.org/2000/svg" xmlns:xlink="http://www.w3.org/1999/xlink" x="0px" y="0px" width="235px" height="82px"
	 viewBox="0 0 235 82" enable-background="new 0 0 235 82" xml:space="preserve"  class="svg-sistema-logo">
<metadata>
	<sfw  xmlns="&ns_sfw;">
		<slices></slices>
		<sliceSourceBounds  x="841.955" y="493.999" width="234.09" height="80.001" bottomLeftOrigin="true"></sliceSourceBounds>
	</sfw>
</metadata>
<g>
	<g>
		<g class="sistema-logo-svg-icon">
			<polygon points="4.9,77.158 4.9,44 0.9,44 0.9,81.001 54.9,81.001 54.9,77.162 			"/>
			<polygon points="43.963,5 43.963,5 46.676,5 50.9,8.912 50.9,40 54.9,40 54.9,7.232 48.311,1 0.9,1 0.9,5 			"/>
			<path d="M0.455,11.129c1.898-0.322,4.563-0.564,8.318-0.564c3.795,0,6.5,0.727,8.316,2.18
				c1.775,1.373,2.906,3.633,2.906,6.299c0,2.664-0.846,4.965-2.502,6.459c-2.1,1.939-5.209,2.867-8.842,2.867
				c-0.808,0-1.535-0.041-2.1-0.162v9.771H0.455V11.129z M6.553,23.484c0.523,0.121,1.13,0.16,2.059,0.16
				c3.271,0,5.289-1.654,5.289-4.4c0-2.504-1.736-3.996-4.845-3.996c-1.211,0-2.06,0.08-2.503,0.201V23.484z"/>
			<path d="M41.838,37.252c-1.09,0.525-3.674,1.17-6.943,1.17c-9.408,0-14.252-5.895-14.252-13.646
				c0-9.285,6.62-14.414,14.857-14.414c3.189,0,5.611,0.605,6.701,1.211l-1.291,4.846c-1.213-0.525-2.947-1.01-5.168-1.01
				c-4.846,0-8.641,2.948-8.641,9.004c0,5.451,3.23,8.883,8.68,8.883c1.898,0,3.916-0.363,5.168-0.889L41.838,37.252z"/>
			<path d="M10.293,44.053c1.897-0.322,4.563-0.564,8.318-0.564c3.795,0,6.5,0.727,8.315,2.18
				c1.776,1.373,2.907,3.633,2.907,6.299c0,2.664-0.848,4.965-2.504,6.459c-2.099,1.939-5.209,2.867-8.842,2.867
				c-0.807,0-1.535-0.041-2.099-0.162v9.771h-6.097V44.053z M16.39,56.408c0.524,0.121,1.13,0.16,2.06,0.16
				c3.27,0,5.289-1.654,5.289-4.4c0-2.504-1.738-3.996-4.846-3.996c-1.211,0-2.061,0.08-2.503,0.201V56.408z"/>
			<path d="M54.461,69.65c-1.896,0.646-5.492,1.535-9.084,1.535c-4.967,0-8.561-1.252-11.063-3.635
				c-2.463-2.383-3.836-5.936-3.836-9.932c0.041-9.045,6.621-14.213,15.545-14.213c3.512,0,6.217,0.688,7.549,1.293l-1.291,4.965
				c-1.494-0.686-3.313-1.17-6.299-1.17c-5.127,0-9.043,2.867-9.043,8.801c0,5.654,3.551,8.924,8.599,8.924
				c1.372,0,2.504-0.162,2.987-0.363v-5.734h-4.199v-4.803h10.135V69.65z"/>
		</g>
		<path d="M66.014,21.814c0.969-0.173,2.281-0.302,4.045-0.302c1.937,0,3.335,0.409,4.26,1.184
			c0.861,0.71,1.42,1.851,1.42,3.206c0,1.377-0.43,2.495-1.227,3.27c-1.075,1.055-2.711,1.571-4.582,1.571
			c-0.495,0-0.926-0.021-1.291-0.107v5.485h-2.625V21.814z M68.639,28.548c0.344,0.108,0.753,0.13,1.291,0.13
			c1.979,0,3.184-0.99,3.184-2.668c0-1.614-1.118-2.453-2.947-2.453c-0.731,0-1.248,0.064-1.527,0.129V28.548z M77.141,29.021
			c0-1.42-0.021-2.452-0.086-3.378h2.28l0.107,1.979h0.064c0.517-1.463,1.743-2.216,2.884-2.216c0.258,0,0.408,0.021,0.623,0.064
			v2.475c-0.236-0.043-0.473-0.064-0.796-0.064c-1.247,0-2.13,0.796-2.366,2c-0.043,0.237-0.064,0.517-0.064,0.797v5.442h-2.646
			V29.021z M94.031,30.786c0,3.851-2.711,5.572-5.379,5.572c-2.947,0-5.249-2.022-5.249-5.4c0-3.442,2.259-5.551,5.422-5.551
			C91.945,25.407,94.031,27.602,94.031,30.786z M86.136,30.894c0,2.022,1.011,3.55,2.604,3.55c1.506,0,2.56-1.463,2.56-3.593
			c0-1.636-0.73-3.528-2.538-3.528C86.889,27.322,86.136,29.15,86.136,30.894z M105.33,20.846v12.328
			c0,1.076,0.043,2.237,0.086,2.947h-2.345l-0.13-1.656h-0.043c-0.623,1.162-1.893,1.894-3.398,1.894
			c-2.518,0-4.497-2.13-4.497-5.357c-0.021-3.507,2.173-5.594,4.69-5.594c1.441,0,2.475,0.581,2.947,1.355h0.043v-5.917H105.33z
			 M102.684,30.012c0-0.216-0.021-0.495-0.064-0.71c-0.236-1.012-1.076-1.851-2.28-1.851c-1.7,0-2.646,1.506-2.646,3.442
			s0.946,3.335,2.625,3.335c1.075,0,2.022-0.731,2.28-1.872c0.064-0.236,0.086-0.495,0.086-0.774V30.012z M117.016,32.98
			c0,1.248,0.043,2.28,0.086,3.141H114.8l-0.129-1.57h-0.064c-0.452,0.731-1.484,1.808-3.378,1.808
			c-1.893,0-3.636-1.141-3.636-4.562v-6.153h2.646v5.702c0,1.742,0.561,2.861,1.959,2.861c1.075,0,1.764-0.731,2.021-1.42
			c0.107-0.216,0.15-0.517,0.15-0.818v-6.325h2.646V32.98z M127.045,35.799c-0.473,0.236-1.398,0.517-2.581,0.538l-0.452,0.796
			c0.797,0.172,1.549,0.71,1.549,1.656c0,1.42-1.227,1.915-2.431,1.915c-0.56,0-1.227-0.129-1.657-0.387l0.366-1.184
			c0.323,0.193,0.774,0.301,1.184,0.301c0.452,0,0.839-0.15,0.839-0.603c0-0.494-0.56-0.731-1.678-0.839l0.86-1.742
			c-2.668-0.366-4.368-2.367-4.368-5.271c0-3.142,2.152-5.572,5.831-5.572c0.968,0,1.937,0.215,2.56,0.474l-0.473,2.001
			c-0.431-0.216-1.076-0.409-2.022-0.409c-2.001,0-3.206,1.484-3.185,3.399c0,2.151,1.398,3.378,3.206,3.378
			c0.903,0,1.57-0.194,2.087-0.409L127.045,35.799z M136.601,33.604c0,0.946,0.044,1.872,0.173,2.517h-2.389l-0.193-1.161h-0.064
			c-0.624,0.817-1.722,1.398-3.099,1.398c-2.108,0-3.292-1.527-3.292-3.12c0-2.625,2.346-3.979,6.219-3.958v-0.173
			c0-0.688-0.28-1.828-2.131-1.828c-1.032,0-2.108,0.322-2.818,0.774l-0.516-1.722c0.773-0.473,2.129-0.925,3.786-0.925
			c3.356,0,4.324,2.13,4.324,4.432V33.604z M129.501,24.03c-0.064-1.635,0.603-2.561,1.636-2.561c0.494,0,0.902,0.216,1.354,0.452
			c0.345,0.193,0.646,0.387,0.925,0.387c0.323,0,0.518-0.193,0.561-0.925h1.291c0.043,1.722-0.561,2.496-1.636,2.496
			c-0.538,0-0.968-0.216-1.398-0.452c-0.409-0.236-0.603-0.365-0.882-0.365c-0.323,0-0.495,0.344-0.538,0.968H129.501z
			 M134.02,31.001c-1.872-0.021-3.658,0.366-3.658,1.958c0,1.032,0.667,1.506,1.506,1.506c1.076,0,1.829-0.688,2.088-1.441
			c0.064-0.193,0.064-0.388,0.064-0.581V31.001z M148.824,30.786c0,3.851-2.711,5.572-5.379,5.572c-2.947,0-5.25-2.022-5.25-5.4
			c0-3.442,2.26-5.551,5.422-5.551C146.737,25.407,148.824,27.602,148.824,30.786z M140.928,30.894c0,2.022,1.012,3.55,2.604,3.55
			c1.506,0,2.561-1.463,2.561-3.593c0-1.636-0.731-3.528-2.539-3.528C141.682,27.322,140.928,29.15,140.928,30.894z M164.879,35.713
			c-0.624,0.301-2.001,0.646-3.766,0.646c-4.604,0-7.4-2.883-7.4-7.315c0-4.776,3.334-7.659,7.767-7.659
			c1.743,0,2.969,0.366,3.507,0.646l-0.56,2.108c-0.688-0.301-1.657-0.56-2.84-0.56c-2.948,0-5.077,1.851-5.077,5.336
			c0,3.206,1.85,5.229,5.056,5.229c1.054,0,2.173-0.216,2.883-0.517L164.879,35.713z M169.25,22.718c0,0.774-0.581,1.42-1.506,1.42
			c-0.883,0-1.464-0.646-1.464-1.42c0-0.817,0.603-1.441,1.485-1.441C168.669,21.276,169.229,21.9,169.25,22.718z M166.432,36.121
			V25.644h2.646v10.478H166.432z M173.274,31.625c0.064,1.894,1.527,2.711,3.228,2.711c1.227,0,2.086-0.193,2.904-0.474l0.387,1.808
			c-0.903,0.387-2.151,0.667-3.657,0.667c-3.399,0-5.4-2.087-5.4-5.293c0-2.904,1.765-5.637,5.12-5.637
			c3.4,0,4.519,2.797,4.519,5.099c0,0.495-0.043,0.883-0.086,1.119H173.274z M177.879,29.774c0.021-0.968-0.409-2.56-2.174-2.56
			c-1.635,0-2.323,1.484-2.431,2.56H177.879z M181.97,28.764c0-1.205-0.044-2.216-0.087-3.12h2.303l0.129,1.571h0.064
			c0.474-0.818,1.613-1.808,3.356-1.808c1.829,0,3.722,1.184,3.722,4.496v6.218h-2.646v-5.916c0-1.506-0.559-2.646-2-2.646
			c-1.055,0-1.786,0.753-2.065,1.549c-0.087,0.216-0.13,0.538-0.13,0.84v6.174h-2.646V28.764z M196.67,22.954v2.689h2.518v1.979
			h-2.518v4.626c0,1.291,0.344,1.937,1.355,1.937c0.473,0,0.731-0.021,1.033-0.107l0.043,2c-0.388,0.151-1.098,0.28-1.916,0.28
			c-0.989,0-1.785-0.323-2.28-0.86c-0.581-0.603-0.839-1.571-0.839-2.948v-4.927h-1.484v-1.979h1.484v-1.958L196.67,22.954z
			 M200.652,36.121V25.644h2.646v10.478H200.652z M205.213,21.104l-2.625,3.184h-1.828l1.85-3.184H205.213z M205.924,36.121v-8.498
			h-1.42v-1.979h1.42v-0.494c0-2.819,1.959-4.54,5.057-4.54c1.055,0,2.303,0.279,2.904,0.667l-0.602,2.001
			c-0.475-0.28-1.313-0.56-2.303-0.56c-1.828,0-2.432,1.119-2.432,2.496v0.43h6.24v10.478h-2.646v-8.498h-3.572v8.498H205.924z
			 M224.818,35.799c-0.56,0.258-1.657,0.538-2.969,0.538c-3.271,0-5.4-2.108-5.4-5.357c0-3.142,2.15-5.572,5.83-5.572
			c0.969,0,1.958,0.215,2.561,0.474l-0.474,2.001c-0.431-0.216-1.054-0.409-2.001-0.409c-2.022,0-3.227,1.484-3.205,3.399
			c0,2.151,1.398,3.378,3.205,3.378c0.904,0,1.57-0.194,2.087-0.409L224.818,35.799z M234.373,33.604
			c0,0.946,0.043,1.872,0.172,2.517h-2.388l-0.193-1.161h-0.064c-0.624,0.817-1.722,1.398-3.099,1.398
			c-2.108,0-3.291-1.527-3.291-3.12c0-2.625,2.345-3.979,6.217-3.958v-0.173c0-0.688-0.279-1.828-2.129-1.828
			c-1.033,0-2.109,0.322-2.818,0.774l-0.518-1.722c0.775-0.473,2.131-0.925,3.787-0.925c3.356,0,4.324,2.13,4.324,4.432V33.604z
			 M231.791,31.001c-1.871-0.021-3.656,0.366-3.656,1.958c0,1.032,0.666,1.506,1.506,1.506c1.075,0,1.828-0.688,2.086-1.441
			c0.064-0.193,0.064-0.388,0.064-0.581V31.001z"/>
		<g  class="sistema-logo-svg-text">
			<path d="M75.566,43.508v12.328c0,1.075,0.043,2.237,0.086,2.947h-2.345l-0.13-1.656h-0.043
				c-0.623,1.161-1.893,1.893-3.398,1.893c-2.518,0-4.497-2.13-4.497-5.356c-0.021-3.508,2.173-5.595,4.69-5.595
				c1.441,0,2.475,0.581,2.947,1.355h0.043v-5.916H75.566z M72.92,52.673c0-0.215-0.021-0.495-0.064-0.71
				c-0.236-1.011-1.076-1.851-2.28-1.851c-1.7,0-2.646,1.507-2.646,3.442c0,1.937,0.946,3.335,2.625,3.335
				c1.075,0,2.022-0.731,2.28-1.871c0.064-0.237,0.086-0.495,0.086-0.775V52.673z"/>
			<path d="M86.026,56.266c0,0.947,0.043,1.872,0.172,2.518h-2.388l-0.193-1.162h-0.064
				c-0.625,0.817-1.722,1.398-3.099,1.398c-2.108,0-3.292-1.527-3.292-3.119c0-2.625,2.346-3.98,6.218-3.959V51.77
				c0-0.688-0.28-1.829-2.13-1.829c-1.033,0-2.108,0.323-2.818,0.774l-0.517-1.721c0.774-0.474,2.13-0.926,3.786-0.926
				c3.357,0,4.325,2.131,4.325,4.433V56.266z M83.444,53.663c-1.872-0.021-3.657,0.365-3.657,1.957c0,1.033,0.667,1.507,1.506,1.507
				c1.076,0,1.828-0.688,2.087-1.442c0.064-0.193,0.064-0.387,0.064-0.58V53.663z"/>
			<path d="M92.355,44.476c0.968-0.172,2.28-0.301,4.045-0.301c1.936,0,3.334,0.408,4.26,1.184
				c0.86,0.71,1.42,1.85,1.42,3.205c0,1.377-0.431,2.496-1.227,3.271c-1.076,1.054-2.711,1.57-4.582,1.57
				c-0.496,0-0.926-0.021-1.291-0.107v5.486h-2.625V44.476z M94.98,51.21c0.344,0.107,0.752,0.129,1.291,0.129
				c1.979,0,3.184-0.989,3.184-2.668c0-1.613-1.119-2.452-2.947-2.452c-0.732,0-1.248,0.064-1.527,0.129V51.21z"/>
			<path d="M113.185,53.447c0,3.852-2.711,5.572-5.379,5.572c-2.947,0-5.249-2.022-5.249-5.399
				c0-3.443,2.259-5.552,5.422-5.552C111.098,48.068,113.185,50.264,113.185,53.447z M105.289,53.555
				c0,2.022,1.011,3.551,2.604,3.551c1.506,0,2.56-1.464,2.56-3.594c0-1.635-0.731-3.528-2.538-3.528
				C106.041,49.983,105.289,51.813,105.289,53.555z M111.012,43.766l-2.625,3.185h-1.828l1.871-3.185H111.012z"/>
			<path d="M114.736,56.33c0.581,0.366,1.722,0.775,2.668,0.775c1.162,0,1.678-0.495,1.678-1.184
				c0-0.71-0.43-1.055-1.721-1.527c-2.044-0.688-2.883-1.808-2.883-3.056c0-1.85,1.527-3.271,3.959-3.271
				c1.162,0,2.173,0.28,2.797,0.624l-0.538,1.851c-0.431-0.258-1.291-0.603-2.216-0.603c-0.947,0-1.463,0.474-1.463,1.119
				c0,0.667,0.494,0.968,1.828,1.463c1.915,0.667,2.775,1.635,2.797,3.185c0,1.914-1.484,3.291-4.26,3.291
				c-1.27,0-2.409-0.301-3.184-0.731L114.736,56.33z"/>
			<path d="M128.014,52.135v1.829h-5.486v-1.829H128.014z"/>
			<path d="M141.57,58.116c-0.926,0.345-2.732,0.817-4.647,0.817c-2.452,0-4.325-0.624-5.702-1.937
				c-1.291-1.226-2.021-3.141-2.021-5.335c0.021-4.604,3.27-7.53,8.068-7.53c1.785,0,3.184,0.365,3.851,0.688l-0.581,2.13
				c-0.796-0.366-1.764-0.624-3.291-0.624c-3.099,0-5.271,1.829-5.271,5.206c0,3.292,2.021,5.25,5.034,5.25
				c0.968,0,1.657-0.129,2.001-0.279v-3.637h-2.561v-2.087h5.121V58.116z"/>
			<path d="M143.725,51.684c0-1.42-0.021-2.453-0.086-3.378h2.281l0.107,1.979h0.064
				c0.517-1.463,1.742-2.217,2.883-2.217c0.258,0,0.409,0.021,0.624,0.065v2.474c-0.236-0.043-0.474-0.064-0.796-0.064
				c-1.248,0-2.13,0.796-2.367,2.001c-0.043,0.236-0.064,0.517-0.064,0.796v5.443h-2.646V51.684z"/>
			<path d="M158.809,56.266c0,0.947,0.043,1.872,0.172,2.518h-2.389l-0.193-1.162h-0.064
				c-0.623,0.817-1.721,1.398-3.098,1.398c-2.109,0-3.292-1.527-3.292-3.119c0-2.625,2.345-3.98,6.218-3.959V51.77
				c0-0.688-0.279-1.829-2.13-1.829c-1.032,0-2.108,0.323-2.818,0.774l-0.517-1.721c0.774-0.474,2.13-0.926,3.787-0.926
				c3.355,0,4.324,2.131,4.324,4.433V56.266z M156.227,53.663c-1.871-0.021-3.657,0.365-3.657,1.957
				c0,1.033,0.667,1.507,1.506,1.507c1.075,0,1.829-0.688,2.087-1.442c0.064-0.193,0.064-0.387,0.064-0.58V53.663z"/>
			<path d="M170.752,43.508v12.328c0,1.075,0.043,2.237,0.086,2.947h-2.344l-0.13-1.656h-0.043
				c-0.624,1.161-1.894,1.893-3.399,1.893c-2.518,0-4.496-2.13-4.496-5.356c-0.021-3.508,2.173-5.595,4.689-5.595
				c1.441,0,2.475,0.581,2.947,1.355h0.044v-5.916H170.752z M168.106,52.673c0-0.215-0.022-0.495-0.065-0.71
				c-0.236-1.011-1.075-1.851-2.279-1.851c-1.7,0-2.646,1.507-2.646,3.442c0,1.937,0.946,3.335,2.625,3.335
				c1.075,0,2.021-0.731,2.279-1.871c0.064-0.237,0.087-0.495,0.087-0.775V52.673z"/>
			<path d="M182.459,55.642c0,1.248,0.044,2.281,0.087,3.142h-2.302l-0.129-1.57h-0.065
				c-0.452,0.731-1.484,1.807-3.378,1.807c-1.893,0-3.636-1.14-3.636-4.561v-6.153h2.646v5.701c0,1.743,0.56,2.861,1.958,2.861
				c1.075,0,1.764-0.731,2.021-1.42c0.108-0.215,0.151-0.517,0.151-0.817v-6.325h2.646V55.642z"/>
			<path d="M192.94,56.266c0,0.947,0.043,1.872,0.172,2.518h-2.388l-0.193-1.162h-0.064
				c-0.625,0.817-1.722,1.398-3.099,1.398c-2.108,0-3.292-1.527-3.292-3.119c0-2.625,2.346-3.98,6.218-3.959V51.77
				c0-0.688-0.28-1.829-2.13-1.829c-1.033,0-2.108,0.323-2.818,0.774l-0.517-1.721c0.774-0.474,2.13-0.926,3.786-0.926
				c3.357,0,4.325,2.131,4.325,4.433V56.266z M190.358,53.663c-1.872-0.021-3.657,0.365-3.657,1.957
				c0,1.033,0.667,1.507,1.506,1.507c1.076,0,1.828-0.688,2.087-1.442c0.064-0.193,0.064-0.387,0.064-0.58V53.663z"/>
			<path d="M202.927,58.461c-0.474,0.236-1.399,0.516-2.582,0.537l-0.452,0.796c0.797,0.173,1.549,0.711,1.549,1.657
				c0,1.42-1.226,1.915-2.431,1.915c-0.56,0-1.226-0.13-1.657-0.388l0.366-1.184c0.323,0.194,0.774,0.302,1.184,0.302
				c0.452,0,0.839-0.15,0.839-0.603c0-0.495-0.559-0.731-1.678-0.839l0.86-1.743c-2.668-0.365-4.368-2.366-4.368-5.271
				c0-3.142,2.152-5.573,5.831-5.573c0.968,0,1.937,0.216,2.561,0.474l-0.474,2.001c-0.43-0.215-1.076-0.409-2.022-0.409
				c-2.001,0-3.206,1.485-3.185,3.399c0,2.151,1.398,3.378,3.206,3.378c0.903,0,1.571-0.193,2.087-0.408L202.927,58.461z"/>
			<path d="M212.503,56.266c0,0.947,0.043,1.872,0.172,2.518h-2.388l-0.193-1.162h-0.064
				c-0.625,0.817-1.722,1.398-3.099,1.398c-2.108,0-3.292-1.527-3.292-3.119c0-2.625,2.346-3.98,6.218-3.959V51.77
				c0-0.688-0.28-1.829-2.13-1.829c-1.033,0-2.108,0.323-2.818,0.774l-0.517-1.721c0.774-0.474,2.13-0.926,3.786-0.926
				c3.357,0,4.325,2.131,4.325,4.433V56.266z M205.402,46.691c-0.064-1.635,0.604-2.56,1.636-2.56c0.495,0,0.903,0.215,1.355,0.451
				c0.345,0.194,0.646,0.388,0.925,0.388c0.322,0,0.517-0.193,0.56-0.925h1.291c0.043,1.721-0.56,2.495-1.636,2.495
				c-0.537,0-0.968-0.215-1.398-0.451c-0.408-0.237-0.602-0.366-0.882-0.366c-0.322,0-0.495,0.345-0.538,0.968H205.402z
				 M209.921,53.663c-1.872-0.021-3.657,0.365-3.657,1.957c0,1.033,0.667,1.507,1.506,1.507c1.076,0,1.828-0.688,2.087-1.442
				c0.064-0.193,0.064-0.387,0.064-0.58V53.663z"/>
			<path d="M224.748,53.447c0,3.852-2.711,5.572-5.379,5.572c-2.947,0-5.25-2.022-5.25-5.399
				c0-3.443,2.26-5.552,5.422-5.552C222.66,48.068,224.748,50.264,224.748,53.447z M216.852,53.555c0,2.022,1.012,3.551,2.604,3.551
				c1.506,0,2.561-1.464,2.561-3.594c0-1.635-0.732-3.528-2.539-3.528C217.604,49.983,216.852,51.813,216.852,53.555z"/>
		</g>
	</g>
</g>
</svg>
